<svg id="Layer_1" data-name="Layer 1" xmlns="http://www.w3.org/2000/svg" xmlns:xlink="http://www.w3.org/1999/xlink" viewBox="0 0 1125 2436"><defs><style>.cls-1{fill:url(#linear-gradient);}.cls-2{fill:url(#linear-gradient-2);}.cls-26,.cls-3,.cls-44,.cls-50,.cls-60{fill:#ffb000;}.cls-3{opacity:0.49;}.cls-4,.cls-63{fill:#878787;}.cls-5{fill:url(#linear-gradient-3);}.cls-6{fill:url(#linear-gradient-4);}.cls-7{fill:url(#linear-gradient-5);}.cls-8{fill:url(#linear-gradient-6);}.cls-9{fill:url(#linear-gradient-7);}.cls-10{fill:url(#linear-gradient-8);}.cls-11,.cls-43,.cls-45,.cls-58{fill:#fff;}.cls-12{fill:url(#linear-gradient-9);}.cls-13{fill:#141414;}.cls-14,.cls-15{fill:#3f3f3f;}.cls-15,.cls-16,.cls-66,.cls-67{stroke:#000;}.cls-15,.cls-16,.cls-48,.cls-49,.cls-54,.cls-57,.cls-63,.cls-64,.cls-65,.cls-66,.cls-67{stroke-miterlimit:10;}.cls-15{stroke-width:8.5px;}.cls-16,.cls-27{fill:#7f7f7f;}.cls-16{stroke-width:9.12px;}.cls-17{fill:#969696;}.cls-18{fill:#c4c4c4;}.cls-19{clip-path:url(#clip-path);}.cls-20{fill:#333;}.cls-21{fill:#666;}.cls-22{fill:#c9c9c9;}.cls-23{fill:#161616;}.cls-24{fill:#eaeaea;}.cls-25,.cls-26,.cls-27{font-size:30.4px;font-family:CenturyGothic-Bold, Century Gothic;font-weight:700;}.cls-28{clip-path:url(#clip-path-2);}.cls-29{clip-path:url(#clip-path-3);}.cls-30{clip-path:url(#clip-path-4);}.cls-31{clip-path:url(#clip-path-5);}.cls-32{clip-path:url(#clip-path-6);}.cls-33{clip-path:url(#clip-path-7);}.cls-34{clip-path:url(#clip-path-8);}.cls-35{opacity:0.71;fill:url(#linear-gradient-18);}.cls-36{fill:#1e1e1e;}.cls-37{fill:#ccc;}.cls-38{clip-path:url(#clip-path-9);}.cls-39{fill:#fa0;}.cls-40{fill:#939393;}.cls-41{fill:#3d2900;}.cls-42{clip-path:url(#clip-path-10);}.cls-43,.cls-69{opacity:0.63;}.cls-44{opacity:0.46;}.cls-45{opacity:0.72;}.cls-46{fill:#ffe9c2;}.cls-46,.cls-47{opacity:0.92;}.cls-47{fill:#fff2dc;}.cls-48,.cls-49,.cls-54,.cls-57{stroke:#fff;}.cls-48,.cls-49{stroke-width:4px;}.cls-49,.cls-54,.cls-64,.cls-65,.cls-66,.cls-67{fill:none;}.cls-50{font-size:121.32px;font-family:PlayfairDisplay-Regular, PlayfairDisplay Regular;}.cls-51{letter-spacing:-0.01em;}.cls-52{letter-spacing:0em;}.cls-53{letter-spacing:0.01em;}.cls-54,.cls-57{stroke-width:2px;}.cls-55{font-size:64.41px;}.cls-55,.cls-56{fill:#9b9b9b;}.cls-55,.cls-58,.cls-59,.cls-60{font-family:CenturyGothic, Century Gothic;}.cls-57{fill:#3d3d3d;}.cls-58{font-size:73.31px;}.cls-59,.cls-60{font-size:32.21px;}.cls-59{fill:#aaa;}.cls-61{clip-path:url(#clip-path-11);}.cls-62{clip-path:url(#clip-path-12);}.cls-63,.cls-64,.cls-65{stroke:#878787;}.cls-63{stroke-width:5.06px;}.cls-64{stroke-width:8.04px;}.cls-65{stroke-width:4.6px;}.cls-66{stroke-width:3.45px;}.cls-67{stroke-width:1.72px;}.cls-68{fill:#282828;}</style><linearGradient id="linear-gradient" x1="-673.5" y1="-1522.55" x2="-607.32" y2="-1479.47" gradientTransform="translate(60.78 719.11) rotate(173.43)" gradientUnits="userSpaceOnUse"><stop offset="0.41" stop-color="#fff"/><stop offset="1" stop-color="#212121"/></linearGradient><linearGradient id="linear-gradient-2" x1="-1496.85" y1="517.4" x2="-1430.66" y2="560.48" gradientTransform="matrix(-0.5, -0.87, 0.87, -0.5, -374.03, 1217.1)" xlink:href="#linear-gradient"/><linearGradient id="linear-gradient-3" x1="-1556.09" y1="137.77" x2="-1489.91" y2="180.85" gradientTransform="matrix(-0.65, -0.76, 0.76, -0.65, -279.1, 1151.09)" xlink:href="#linear-gradient"/><linearGradient id="linear-gradient-4" x1="-1461.25" y1="-652.82" x2="-1395.06" y2="-609.73" gradientTransform="matrix(-0.89, -0.45, 0.45, -0.89, -99.01, 970.9)" xlink:href="#linear-gradient"/><linearGradient id="linear-gradient-5" x1="1675.27" y1="-823.87" x2="1741.45" y2="-780.79" gradientTransform="translate(-1269.4 3266.22) rotate(-11.81)" xlink:href="#linear-gradient"/><linearGradient id="linear-gradient-6" x1="1810.41" y1="-588.87" x2="1876.59" y2="-545.79" gradientTransform="translate(-1235.7 3376.83) rotate(-22.55)" xlink:href="#linear-gradient"/><linearGradient id="linear-gradient-7" x1="1924.06" y1="-19.55" x2="1990.25" y2="23.53" gradientTransform="translate(-1119.45 3603.51) rotate(-45.33)" xlink:href="#linear-gradient"/><linearGradient id="linear-gradient-8" x1="1805.32" y1="868.43" x2="1871.5" y2="911.51" gradientTransform="translate(-928.83 3832.85) rotate(-78.7)" xlink:href="#linear-gradient"/><linearGradient id="linear-gradient-9" x1="564" y1="93" x2="564" y2="2293.05" gradientUnits="userSpaceOnUse"><stop offset="0" stop-color="#303030"/><stop offset="1"/></linearGradient><clipPath id="clip-path"><path class="cls-1" d="M910.65,2158.86s-4.75-41.23-21.61-58.8-24.75-21.61-36.84-14.45-23.11,35.64-22.09,56.41.62,41.15,22.2,32.9,37.94-4.65,37.94-4.65S910.21,2176.49,910.65,2158.86Z"/></clipPath><clipPath id="clip-path-2"><path class="cls-2" d="M815.4,2269.11s36.05-20.55,45.6-43,10.16-31.25-1.18-39.56-41.85-7.26-60.55,1.83-37.61,16.72-21.54,33.34,19.16,33.07,19.16,33.07S799,2275.62,815.4,2269.11Z"/></clipPath><clipPath id="clip-path-3"><path class="cls-5" d="M835,2254.27s31.59-26.91,36.79-50.7,4.16-32.59-8.53-38.64-42.46.66-59.15,13.08-33.83,23.43-14.95,36.76,25,28.92,25,28.92S820.05,2263.73,835,2254.27Z"/></clipPath><clipPath id="clip-path-4"><path class="cls-6" d="M914.08,2219.67s18.72-37,14.3-61-8.78-31.66-22.82-32.33-38.9,17.05-49.47,35S834,2196,856.53,2201s34.24,17,34.24,17S904,2234.16,914.08,2219.67Z"/></clipPath><clipPath id="clip-path-5"><path class="cls-7" d="M194.72,2113.21s8.5,40.62,26.9,56.58,26.62,19.25,38,11,19.75-37.6,16.84-58.19-4.37-40.92-25.11-30.73S214,2100,214,2100,193.55,2095.6,194.72,2113.21Z"/></clipPath><clipPath id="clip-path-6"><path class="cls-8" d="M202.84,2136.37s15.92,38.32,37,50.57,29.74,14,39.39,3.74,12.4-40.62,5.7-60.31S273,2091,254.5,2104.86s-35.2,14.91-35.2,14.91S198.41,2119.29,202.84,2136.37Z"/></clipPath><clipPath id="clip-path-7"><path class="cls-9" d="M211.5,2222.3s29.51,29.18,53.66,32.32,32.83,1.36,37.77-11.8-4.3-42.25-18.09-57.81-26.25-31.71-37.91-11.75-26.68,27.37-26.68,27.37S200.8,2208.27,211.5,2222.3Z"/></clipPath><clipPath id="clip-path-8"><path class="cls-10" d="M270.43,2237.69s40.7,8.13,62.59-2.52,28.16-16.93,25.06-30.64-26.84-32.92-46.92-38.33-39.35-12-38.12,11-7.22,37.54-7.22,37.54S253.78,2231.86,270.43,2237.69Z"/></clipPath><linearGradient id="linear-gradient-18" x1="552.91" y1="848.69" x2="574.44" y2="2194.51" gradientUnits="userSpaceOnUse"><stop offset="0" stop-color="#303030" stop-opacity="0"/><stop offset="1"/></linearGradient><clipPath id="clip-path-9"><circle class="cls-11" cx="1018" cy="37" r="174.21"/></clipPath><clipPath id="clip-path-10"><circle class="cls-3" cx="1018" cy="37" r="145.02"/></clipPath><clipPath id="clip-path-11"><path class="cls-4" d="M-53.15-27.59H500a55.3,55.3,0,0,1,55.3,55.3V79.27a0,0,0,0,1,0,0H-53.15a0,0,0,0,1,0,0V-27.59a0,0,0,0,1,0,0Z" transform="translate(28.93 145.65) rotate(-34.22)"/></clipPath><clipPath id="clip-path-12"><path class="cls-4" d="M400.1-10.91,377.81-43.69l131.12-89.17,64.88,89.27L742.67,72.93s13.46,7.53.18,18.64S617.2,204.11,617.2,204.11s-6.72-3.76-3-10.48S471.2,78.3,471.2,78.3s-24.46-8.38-72.92,24.58-76.1,41.33-100.9-4.33l-42.19-13Z"/></clipPath></defs><rect id="backgr" class="cls-12" x="-1" y="0.5" width="1130" height="2435"/><polygon id="Shadow2" class="cls-13" points="1031.44 2181.66 1065.36 2198.79 1005.59 2317.11 979.25 2303.8 951.74 2327.23 959.48 2340.81 887.87 2381.62 886.09 2382.64 844.32 2406.44 739.48 2222.5 705.57 2226.4 698.16 2161.98 673.12 2132.58 683.29 2123.92 681.49 2120.76 692.68 2114.38 692.84 2115.78 698.16 2111.26 692.68 2114.38 690.42 2094.71 721.83 2091.09 774.03 2046.63 781.48 2055.38 786.28 2061.02 789.28 2059.31 796.64 2055.12 802.99 2066.25 827.99 2078.87 1017.09 2057.1 1031.44 2181.66"/><polygon id="Shadow1" class="cls-13" points="259.12 2355.12 234.3 2383.9 133.92 2297.34 153.2 2274.99 137.1 2242.63 122.05 2246.87 99.74 2167.52 99.18 2165.55 86.17 2119.27 289.99 2061.94 294.38 2028.1 358.69 2036.46 393.27 2019.26 399.22 2031.22 402.72 2030.24 406.2 2042.64 404.8 2042.45 407.91 2048.7 406.2 2042.64 425.84 2045.19 421.76 2076.55 452.3 2137.94 442.02 2143.05 435.39 2146.36 436.32 2149.67 438.61 2157.83 426.28 2161.3 407.99 2182.51 383.46 2371.28 259.12 2355.12"/><g id="Money2"><rect class="cls-14" x="702.97" y="2062.01" width="328.84" height="132.55" transform="translate(1972.52 4143.39) rotate(173.43)"/><rect class="cls-15" x="717.41" y="2073.9" width="299.95" height="108.76" transform="translate(1972.52 4143.39) rotate(173.43)"/><ellipse class="cls-16" cx="867.38" cy="2128.29" rx="48.01" ry="53.11" transform="translate(-237.75 113.18) rotate(-6.57)"/><circle cx="971.67" cy="2116.35" r="19.97"/><circle class="cls-17" cx="767.39" cy="2139.87" r="19.97"/><circle class="cls-18" cx="867.38" cy="2128.29" r="34.84"/><path class="cls-1" d="M910.65,2158.86s-4.75-41.23-21.61-58.8-24.75-21.61-36.84-14.45-23.11,35.64-22.09,56.41.62,41.15,22.2,32.9,37.94-4.65,37.94-4.65S910.21,2176.49,910.65,2158.86Z"/><g class="cls-19"><path class="cls-20" d="M860.09,2151.76a36.33,36.33,0,0,0,1-19.9c-2.61-10.7-4.24-10.51-4.1-14.1s-1.61-9.65,5.06-16.19l-.84-6.83s-12.1-2.45-5.75-11.71l-19.59,8.86L828,2119.17l4.7,36,4.93,4.63,10,1.93Z"/><path d="M844.63,2177.45s-18.18-17.14-6.52-32.78c0,0-8.33-24.6,9-36.49,0,0,.41-17.91,6.75-25,0,0-23,7.87-25.39,44.42S832.05,2182.75,844.63,2177.45Z"/><path class="cls-21" d="M858.05,2138.8s-11.87-5.23-17.06,2.24C841,2141,845.47,2137,858.05,2138.8Z"/><path class="cls-21" d="M857.05,2137.27s-12.56-4.05-16.34,1.33c0,0,2-6.28,4.2-6.53S855.17,2128.14,857.05,2137.27Z"/><path class="cls-22" d="M894.94,2134.56s-12.1-2.46-18.42,2.39C876.52,2137,882.54,2127.19,894.94,2134.56Z"/><path class="cls-23" d="M859.33,2134a1.55,1.55,0,0,1,0,.21c.23,1.31,2.83,15.73,3.65,7.29.72-7.45-2.62-19.32-3.68-22.85a2.33,2.33,0,0,0-2.53-1.67c-.87.14-1.84.81-2.54,2.74,0,0-.48,1.31,2,6.64A53.56,53.56,0,0,1,859.33,2134Z"/><path class="cls-21" d="M842.09,2143.15s-4.18,19.54,5.86,15.7,8.93-8.83,9.84-10.27-2.51-7.78-3.24-7.16-12.46,1.73-12.46,1.73"/><path d="M856.87,2152.41s4.77-3.85,5,.79-13.29,8.68-13.29,8.68a11.73,11.73,0,0,1-13.4-4.23s5.92,3.71,8.78,2.28S856.87,2152.41,856.87,2152.41Z"/><path d="M880.74,2149.66s-5.52-2.67-4.72,1.91,14.91,5.43,14.91,5.43a11.72,11.72,0,0,0,12.1-7.16s-4.93,5-8,4.22S880.74,2149.66,880.74,2149.66Z"/><path d="M858.24,2140.43s-5.7,7.8-18.66,2.7C839.58,2143.13,844.75,2137.86,858.24,2140.43Z"/><path d="M895.12,2136.18s-5.69,7.8-18.65,2.7C876.47,2138.88,881.64,2133.61,895.12,2136.18Z"/><path d="M875.55,2104.59a17.43,17.43,0,0,0-5.2,3.39c-2.53,2.39-6.29,0-6.29,0s-3.13,3.15-6.13,1.4a17.51,17.51,0,0,0-6.52-2Z"/><path d="M874.74,2104.73s-13.43-9.18-22,2.53Z"/><path class="cls-24" d="M869.71,2139s-3.56-13.19-1.56-19.5c0,0-1.94-5-4.82-3.49s-2.6,4.06-.37,11.61a53.7,53.7,0,0,1,1.81,15.71S871.63,2149.73,869.71,2139Z"/><path class="cls-24" d="M869.18,2121.45s3.81.37,4.3-2.37-.13-3.48-.13-3.48S872.28,2120.29,869.18,2121.45Z"/><path d="M866.92,2115.8s4,1.69,5.63-.11S866.92,2115.8,866.92,2115.8Z"/></g><text class="cls-25" transform="translate(992.94 2065.84) rotate(173.43)">100</text><text class="cls-26" transform="translate(793.69 2125.56) rotate(173.43)">100</text><text class="cls-27" transform="translate(1001.11 2136.75) rotate(173.43)">100</text><rect class="cls-14" x="662.11" y="2151.03" width="328.84" height="132.55" transform="translate(-690.58 4033.35) rotate(-119.68)"/><rect class="cls-15" x="676.56" y="2162.93" width="299.95" height="108.76" transform="translate(-690.58 4033.35) rotate(-119.68)"/><ellipse class="cls-16" cx="826.53" cy="2217.31" rx="53.11" ry="48.01" transform="translate(-989.51 700.2) rotate(-29.68)"/><circle cx="878.45" cy="2308.54" r="19.97"/><circle class="cls-17" cx="776.63" cy="2129.89" r="19.97"/><circle class="cls-18" cx="826.53" cy="2217.31" r="34.84"/><path class="cls-2" d="M815.4,2269.11s36.05-20.55,45.6-43,10.16-31.25-1.18-39.56-41.85-7.26-60.55,1.83-37.61,16.72-21.54,33.34,19.16,33.07,19.16,33.07S799,2275.62,815.4,2269.11Z"/><g class="cls-28"><path class="cls-20" d="M802.08,2219.82a36.35,36.35,0,0,0,18.7-6.89c8.81-6.59,8-8,11.35-9.3s8.25-5.27,16.88-1.7l6-3.46s-2.49-12.09,8.51-9.87l-15.83-14.55-28.18,3.49L788.19,2196l-2.33,6.35,2.17,10Z"/><path d="M772.38,2215.69s8.63-23.46,27.59-18.87c0,0,19.36-17.32,37.09-6.05,0,0,16.63-6.66,25.6-3.6,0,0-16.26-18.07-50.82-5.91S762.57,2206.19,772.38,2215.69Z"/><path class="cls-21" d="M813.19,2212.85s.15-13-8.75-14.8C804.44,2198.05,810,2200.56,813.19,2212.85Z"/><path class="cls-21" d="M814.21,2211.33s-1.2-13.14-7.64-14.5c0,0,6.57-.6,7.66,1.29S821.87,2206,814.21,2211.33Z"/><path class="cls-22" d="M831.58,2245.11s-2.49-12.09-9.43-16C822.15,2229.12,833.49,2230.82,831.58,2245.11Z"/><path class="cls-23" d="M818.13,2212.14l-.17.12c-1.11.73-13.36,8.78-5.28,6.21,7.14-2.26,16.74-10,19.58-12.35a2.33,2.33,0,0,0,.53-3c-.46-.75-1.46-1.37-3.52-1.26,0,0-1.38.08-5.31,4.45A52.75,52.75,0,0,1,818.13,2212.14Z"/><path class="cls-21" d="M802.93,2199.88s-19.62,3.83-12.14,11.56,11.62,4.75,13.31,5,6.17-5.36,5.31-5.79-6.48-10.78-6.48-10.78"/><path d="M800.22,2217.11s5.41,2.88,1.25,4.94-13.2-8.82-13.2-8.82a11.71,11.71,0,0,1-1.37-14s-1.1,6.9,1.34,9S800.22,2217.11,800.22,2217.11Z"/><path d="M812.12,2238s.28-6.13-3.62-3.59.86,15.85.86,15.85a11.72,11.72,0,0,0,11.34,8.3s-6.5-2.58-7-5.73S812.12,2238,812.12,2238Z"/><path d="M811.77,2213.67s-9.41-2.18-9.8-16.1C802,2197.57,808.84,2200.25,811.77,2213.67Z"/><path d="M830.16,2245.92s-9.42-2.17-9.81-16.09C820.35,2229.83,827.23,2232.51,830.16,2245.92Z"/><path d="M851.53,2215.52a17.35,17.35,0,0,0-5.16-3.45c-3.19-1.38-2.49-5.78-2.49-5.78s-4.14-1.64-3.7-5.08a17.62,17.62,0,0,0-.68-6.8Z"/><path d="M851.09,2214.83s3.16-15.95-11-19.22Z"/><path class="cls-24" d="M817.63,2223.64s10.74-8.45,17.32-9.09c0,0,3.83-3.74,1.33-5.81s-4.75-.79-10.83,4.23a54,54,0,0,1-13.74,7.83S808.48,2229.64,817.63,2223.64Z"/><path class="cls-24" d="M833.52,2216.29s1.16,3.64,3.87,3,3.15-1.49,3.15-1.49S835.81,2218.67,833.52,2216.29Z"/><path d="M837.83,2212s0,4.31,2.32,5.14S837.83,2212,837.83,2212Z"/></g><text class="cls-25" transform="translate(933.22 2308.26) rotate(-119.68)">100</text><text class="cls-26" transform="translate(800.08 2148.44) rotate(-119.68)">100</text><text class="cls-27" transform="translate(871.21 2343.6) rotate(-119.68)">100</text><rect class="cls-14" x="671.82" y="2135.03" width="328.84" height="132.55" transform="translate(-297.4 4265.27) rotate(-130.42)"/><rect class="cls-15" x="686.26" y="2146.93" width="299.95" height="108.76" transform="translate(-297.4 4265.27) rotate(-130.42)"/><ellipse class="cls-16" cx="836.23" cy="2201.31" rx="53.11" ry="48.01" transform="translate(-1227.73 1067.68) rotate(-40.42)"/><circle cx="904.25" cy="2281.27" r="19.97"/><circle class="cls-17" cx="770.91" cy="2124.72" r="19.97"/><circle class="cls-18" cx="836.23" cy="2201.31" r="34.84"/><path class="cls-5" d="M835,2254.27s31.59-26.91,36.79-50.7,4.16-32.59-8.53-38.64-42.46.66-59.15,13.08-33.83,23.43-14.95,36.76,25,28.92,25,28.92S820.05,2263.73,835,2254.27Z"/><g class="cls-29"><path class="cls-20" d="M812.68,2208.33a36.3,36.3,0,0,0,17.09-10.25c7.42-8.12,6.36-9.37,9.42-11.25s7.12-6.72,16.26-4.82l5.21-4.51s-4.7-11.41,6.52-11.29l-18.27-11.34-27,8.68-27.29,24-1.1,6.68,4,9.42Z"/><path d="M782.73,2209.81s4.11-24.66,23.59-23.68c0,0,15.79-20.62,35.31-12.86,0,0,15.1-9.64,24.49-8.3,0,0-19.35-14.72-51,3.66S771.32,2202.31,782.73,2209.81Z"/><path class="cls-21" d="M822.3,2199.42s-2.27-12.77-11.36-12.92C810.94,2186.5,816.83,2187.94,822.3,2199.42Z"/><path class="cls-21" d="M823,2197.73s-3.63-12.68-10.2-12.82c0,0,6.34-1.82,7.76-.16S829.55,2191.09,823,2197.73Z"/><path class="cls-22" d="M846.37,2227.68s-4.7-11.41-12.24-13.95C834.13,2213.73,845.59,2213.29,846.37,2227.68Z"/><path class="cls-23" d="M827,2197.79a1.07,1.07,0,0,1-.14.16c-1,.92-11.49,11.11-4,7.08,6.59-3.55,14.59-12.93,16.93-15.78a2.33,2.33,0,0,0,0-3c-.6-.65-1.69-1.08-3.7-.58,0,0-1.34.33-4.39,5.36A51.13,51.13,0,0,1,827,2197.79Z"/><path class="cls-21" d="M809.79,2188.58S791.24,2196,800,2202.2s12.3,2.5,14,2.45,5.06-6.42,4.13-6.68-8.38-9.39-8.38-9.39"/><path d="M810.34,2206s5.86,1.83,2.15,4.63-14.61-6.21-14.61-6.21a11.71,11.71,0,0,1-4-13.48s.21,7,3,8.57S810.34,2206,810.34,2206Z"/><path d="M825.93,2224.31s-.87-6.07-4.23-2.85,3.8,15.41,3.8,15.41a11.73,11.73,0,0,0,12.69,6.05s-6.87-1.33-8-4.32S825.93,2224.31,825.93,2224.31Z"/><path d="M821.05,2200.48s-9.65-.39-12.63-14C808.42,2186.49,815.67,2187.85,821.05,2200.48Z"/><path d="M845.13,2228.75s-9.66-.39-12.63-14C832.5,2214.76,839.75,2216.11,845.13,2228.75Z"/><path d="M860.46,2194.89a17.23,17.23,0,0,0-5.72-2.43c-3.38-.76-3.52-5.21-3.52-5.21s-4.36-.84-4.58-4.3a17.38,17.38,0,0,0-1.94-6.56Z"/><path d="M859.89,2194.29s.14-16.25-14.33-16.83Z"/><path class="cls-24" d="M828.67,2209.19s9-10.31,15.32-12.16c0,0,3.07-4.39.22-6s-4.81.11-9.85,6.17a53.45,53.45,0,0,1-12,10.26S820.79,2216.79,828.67,2209.19Z"/><path class="cls-24" d="M842.91,2199s1.82,3.37,4.37,2.24,2.81-2,2.81-2S845.6,2200.92,842.91,2199Z"/><path d="M846.35,2194s.79,4.23,3.23,4.62S846.35,2194,846.35,2194Z"/></g><text class="cls-25" transform="matrix(-0.65, -0.76, 0.76, -0.65, 958.05, 2270.8)">100</text><text class="cls-26" transform="matrix(-0.65, -0.76, 0.76, -0.65, 797.46, 2138.59)">100</text><text class="cls-27" transform="matrix(-0.65, -0.76, 0.76, -0.65, 903.71, 2317.08)">100</text><rect class="cls-14" x="730.35" y="2104.06" width="328.84" height="132.55" transform="translate(714.74 4510.97) rotate(-153.2)"/><rect class="cls-15" x="744.79" y="2115.96" width="299.95" height="108.76" transform="translate(714.74 4510.97) rotate(-153.2)"/><ellipse class="cls-16" cx="894.77" cy="2170.34" rx="53.11" ry="48.01" transform="translate(-1445.87 1990.31) rotate(-63.2)"/><circle cx="988.43" cy="2217.73" r="19.97"/><circle class="cls-17" cx="804.89" cy="2125.01" r="19.97"/><circle class="cls-18" cx="894.77" cy="2170.34" r="34.84"/><path class="cls-6" d="M914.08,2219.67s18.72-37,14.3-61-8.78-31.66-22.82-32.33-38.9,17.05-49.47,35S834,2196,856.53,2201s34.24,17,34.24,17S904,2234.16,914.08,2219.67Z"/><g class="cls-30"><path class="cls-20" d="M875.76,2185.93a36.21,36.21,0,0,0,11.79-16.07c3.71-10.36,2.25-11.1,4.33-14s4-9,13.13-10.74l3.06-6.17s-8.75-8.7,1.64-12.93l-21.23-3.39-21.57,18.47L851,2173.74l1.57,6.58,7.33,7.14Z"/><path d="M848.73,2198.88s-5.76-24.32,12.58-31c0,0,6.57-25.12,27.58-25.53,0,0,10.19-14.73,19.36-17.13,0,0-23.54-6.08-45.64,23.13S835.3,2196.39,848.73,2198.88Z"/><path class="cls-21" d="M881.19,2174s-7-10.9-15.48-7.52C865.71,2166.47,871.7,2165.52,881.19,2174Z"/><path class="cls-21" d="M881.19,2172.16s-8.26-10.3-14.37-7.88c0,0,5.14-4.13,7.09-3.14S884.65,2163.5,881.19,2172.16Z"/><path class="cls-22" d="M914.33,2190.73s-8.76-8.71-16.7-8.13C897.63,2182.6,908,2177.76,914.33,2190.73Z"/><path class="cls-23" d="M884.91,2170.66c0,.07,0,.14-.08.2-.53,1.22-6.29,14.69-1,8.09,4.7-5.82,8.44-17.57,9.5-21.11a2.31,2.31,0,0,0-1.19-2.77c-.81-.37-2-.34-3.64.89,0,0-1.11.83-2,6.64A52.4,52.4,0,0,1,884.91,2170.66Z"/><path class="cls-21" d="M865.46,2168.84s-14.24,14-3.73,16.33,12.31-2.45,13.86-3.16,2.19-7.88,1.23-7.76-11.36-5.41-11.36-5.41"/><path d="M872.72,2184.7s6.1-.59,3.77,3.43-15.88-.06-15.88-.06a11.73,11.73,0,0,1-8.86-10.91s2.9,6.36,6.07,6.74S872.72,2184.7,872.72,2184.7Z"/><path d="M894.17,2195.54s-3.15-5.27-5-1,9.47,12.74,9.47,12.74a11.72,11.72,0,0,0,14,.66s-6.85,1.44-9-.89S894.17,2195.54,894.17,2195.54Z"/><path d="M880.45,2175.45s-9.05,3.38-17.06-8C863.39,2167.44,870.6,2165.88,880.45,2175.45Z"/><path d="M913.59,2192.19s-9.05,3.38-17.06-8C896.53,2184.19,903.74,2182.63,913.59,2192.19Z"/><path d="M914.62,2155a17.46,17.46,0,0,0-6.21,0c-3.42.61-5.27-3.43-5.27-3.43s-4.35.91-5.89-2.2a17.61,17.61,0,0,0-4.32-5.3Z"/><path d="M913.87,2154.71s-6.17-15.05-19.74-10Z"/><path class="cls-24" d="M890.84,2180.53s4.29-13,9.42-17.15c0,0,1.13-5.23-2.1-5.57s-4.4,2-6.69,9.5a53.91,53.91,0,0,1-7.13,14.12S886.52,2190.59,890.84,2180.53Z"/><path class="cls-24" d="M900,2165.62s3,2.4,4.9.38,1.8-3,1.8-3S903.25,2166.35,900,2165.62Z"/><path d="M901.25,2159.66s2.37,3.59,4.76,3S901.25,2159.66,901.25,2159.66Z"/></g><text class="cls-25" transform="translate(1033.97 2187.25) rotate(-153.2)">100</text><text class="cls-26" transform="translate(834.72 2127.52) rotate(-153.2)">100</text><text class="cls-27" transform="translate(1001.79 2250.96) rotate(-153.2)">100</text></g><g id="Money1"><rect class="cls-14" x="76.18" y="2073.42" width="328.84" height="132.55" transform="translate(-432.97 94.58) rotate(-11.81)"/><rect class="cls-15" x="90.63" y="2085.32" width="299.95" height="108.76" transform="translate(-432.97 94.58) rotate(-11.81)"/><ellipse class="cls-16" cx="240.6" cy="2139.7" rx="48.01" ry="53.11" transform="translate(-432.97 94.58) rotate(-11.81)"/><circle cx="137.84" cy="2161.12" r="19.97"/><circle class="cls-17" cx="339.11" cy="2119.02" r="19.97"/><circle class="cls-18" cx="240.6" cy="2139.7" r="34.84"/><path class="cls-7" d="M194.72,2113.21s8.5,40.62,26.9,56.58,26.62,19.25,38,11,19.75-37.6,16.84-58.19-4.37-40.92-25.11-30.73S214,2100,214,2100,193.55,2095.6,194.72,2113.21Z"/><g class="cls-31"><path class="cls-20" d="M245.72,2115.65a36.26,36.26,0,0,0,.82,19.92c3.57,10.41,5.17,10.07,5.36,13.66s2.49,9.46-3.55,16.58l1.46,6.73s12.27,1.34,6.79,11.13l18.7-10.61,5.32-27.89-8-35.43-5.33-4.16-10.18-1Z"/><path d="M258.76,2088.66s19.68,15.41,9.49,32c0,0,10.55,23.74-5.61,37.16,0,0,1.22,17.87-4.44,25.47,0,0,22.19-9.94,21.22-46.55S270.81,2082.23,258.76,2088.66Z"/><path class="cls-21" d="M248.94,2128.37s12.29,4.12,16.78-3.79C265.72,2124.58,261.63,2129.06,248.94,2128.37Z"/><path class="cls-21" d="M250.07,2129.8s12.88,2.89,16.15-2.81c0,0-1.44,6.43-3.58,6.88S252.78,2138.72,250.07,2129.8Z"/><path class="cls-22" d="M212.59,2136s12.28,1.34,18.12-4.07C230.71,2131.9,225.6,2142.18,212.59,2136Z"/><path class="cls-23" d="M248.1,2133.29l-.06-.21c-.35-1.27-4.25-15.4-4.3-6.92,0,7.48,4.38,19,5.76,22.42a2.31,2.31,0,0,0,2.66,1.42c.86-.21,1.76-1,2.29-3,0,0,.35-1.34-2.61-6.42A53.77,53.77,0,0,1,248.1,2133.29Z"/><path class="cls-21" d="M264.43,2122.58s2.38-19.84-7.27-15.1-8.09,9.61-8.86,11.13,3.21,7.52,3.88,6.83,12.25-2.86,12.25-2.86"/><path d="M248.87,2114.72s-4.41,4.26-5.09-.33,12.44-9.86,12.44-9.86a11.73,11.73,0,0,1,13.74,3s-6.24-3.16-9-1.48S248.87,2114.72,248.87,2114.72Z"/><path d="M225.34,2119.64s5.75,2.14,4.53-2.35-15.35-4-15.35-4a11.72,11.72,0,0,0-11.38,8.24s4.45-5.39,7.61-4.94S225.34,2119.64,225.34,2119.64Z"/><path d="M248.6,2126.77s5-8.29,18.33-4.4C266.93,2122.37,262.27,2128.09,248.6,2126.77Z"/><path d="M212.26,2134.37s5-8.29,18.32-4.39C230.58,2130,225.92,2135.69,212.26,2134.37Z"/><path d="M234.64,2164a17.31,17.31,0,0,0,4.87-3.86c2.29-2.6,6.26-.6,6.26-.6s2.83-3.42,6-1.95a17.39,17.39,0,0,0,6.68,1.43Z"/><path d="M235.43,2163.83s14.21,7.91,21.65-4.53Z"/><path class="cls-24" d="M237.31,2129.29s4.75,12.81,3.34,19.27c0,0,2.38,4.79,5.12,3s2.21-4.28-.7-11.6a53.78,53.78,0,0,1-3.24-15.48S234.41,2118.73,237.31,2129.29Z"/><path class="cls-24" d="M239.43,2146.66s-3.82,0-4.06,2.76.45,3.46.45,3.46S236.46,2148.11,239.43,2146.66Z"/><path d="M242.2,2152.09s-4.09-1.33-5.6.62S242.2,2152.09,242.2,2152.09Z"/></g><text class="cls-25" transform="translate(121.26 2213.39) rotate(-11.81)">100</text><text class="cls-26" transform="translate(314.22 2135.7) rotate(-11.81)">100</text><text class="cls-27" transform="translate(106.64 2143.53) rotate(-11.81)">100</text><rect class="cls-14" x="88.44" y="2087.56" width="328.84" height="132.55" transform="translate(-806.78 261.71) rotate(-22.55)"/><rect class="cls-15" x="102.88" y="2099.46" width="299.95" height="108.76" transform="translate(-806.78 261.71) rotate(-22.55)"/><ellipse class="cls-16" cx="252.85" cy="2153.84" rx="48.01" ry="53.11" transform="translate(-806.78 261.71) rotate(-22.55)"/><circle cx="155.89" cy="2194.04" r="19.97"/><circle class="cls-17" cx="345.79" cy="2115.17" r="19.97"/><circle class="cls-18" cx="252.85" cy="2153.84" r="34.84"/><path class="cls-8" d="M202.84,2136.37s15.92,38.32,37,50.57,29.74,14,39.39,3.74,12.4-40.62,5.7-60.31S273,2091,254.5,2104.86s-35.2,14.91-35.2,14.91S198.41,2119.29,202.84,2136.37Z"/><g class="cls-32"><path class="cls-20" d="M253.4,2129.26a36.37,36.37,0,0,0,4.52,19.42c5.44,9.56,7,8.93,7.81,12.42s4.21,8.83-.4,17l2.69,6.34s12.31-1,8.74,9.67l16.4-13.9,0-28.4-14.43-33.32-6-3.1-10.19.91Z"/><path d="M261.18,2100.31s22.21,11.47,15.3,29.72c0,0,14.78,21.35,1.41,37.55,0,0,4.53,17.33.39,25.85,0,0,19.94-13.9,12.17-49.69S271.82,2091.76,261.18,2100.31Z"/><path class="cls-21" d="M258.93,2141.16s12.85,1.76,15.78-6.85C274.71,2134.31,271.53,2139.47,258.93,2141.16Z"/><path class="cls-21" d="M260.32,2142.36s13.19.43,15.33-5.78c0,0-.21,6.59-2.23,7.43S264.63,2150.62,260.32,2142.36Z"/><path class="cls-22" d="M224.64,2155.4s12.31-1,17-7.37C241.68,2148,238.58,2159.07,224.64,2155.4Z"/><path class="cls-23" d="M259,2146.14a1.62,1.62,0,0,1-.1-.18c-.58-1.19-7.05-14.35-5.51-6,1.36,7.37,7.83,17.85,9.83,21a2.31,2.31,0,0,0,2.88.9c.81-.37,1.55-1.28,1.7-3.33,0,0,.09-1.39-3.77-5.83A52.09,52.09,0,0,1,259,2146.14Z"/><path class="cls-21" d="M273.08,2132.58s-1.37-19.94-10-13.47-6.16,10.94-6.63,12.58,4.55,6.79,5.09,6,11.5-5.1,11.5-5.1"/><path d="M256.32,2127.76s-3.53,5-5.06.62,10.39-12,10.39-12a11.72,11.72,0,0,1,14.05.37s-6.72-1.94-9.07.22S256.32,2127.76,256.32,2127.76Z"/><path d="M234.12,2137s6,1,4-3.15-15.84-1.11-15.84-1.11a11.71,11.71,0,0,0-9.65,10.22s3.37-6.13,6.56-6.28S234.12,2137,234.12,2137Z"/><path d="M258.3,2139.65s3.33-9.07,17.19-7.73C275.49,2131.92,272,2138.4,258.3,2139.65Z"/><path d="M224,2153.89s3.33-9.07,17.19-7.73C241.2,2146.16,237.69,2152.64,224,2153.89Z"/><path d="M251.53,2178.87a17.43,17.43,0,0,0,4.07-4.7c1.76-3,6-1.75,6-1.75s2.15-3.9,5.51-3a17.48,17.48,0,0,0,6.83.17Z"/><path d="M252.27,2178.51s15.43,5.12,20.43-8.48Z"/><path class="cls-24" d="M247.68,2144.23s7,11.7,6.87,18.31c0,0,3.23,4.26,5.6,2s1.37-4.62-2.85-11.27a53.7,53.7,0,0,1-6.07-14.61S242.86,2134.4,247.68,2144.23Z"/><path class="cls-24" d="M253,2160.9s-3.76.7-3.47,3.47,1.08,3.31,1.08,3.31S250.35,2162.87,253,2160.9Z"/><path d="M256.74,2165.72s-4.27-.54-5.39,1.65S256.74,2165.72,256.74,2165.72Z"/></g><text class="cls-25" transform="matrix(0.92, -0.38, 0.38, 0.92, 149.41, 2248.52)">100</text><text class="cls-26" transform="matrix(0.92, -0.38, 0.38, 0.92, 324.51, 2136.23)">100</text><text class="cls-27" transform="matrix(0.92, -0.38, 0.38, 0.92, 122.03, 2182.61)">100</text><rect class="cls-14" x="99.96" y="2152.78" width="328.84" height="132.55" transform="translate(-1499.6 847.01) rotate(-45.33)"/><rect class="cls-15" x="114.4" y="2164.67" width="299.95" height="108.76" transform="translate(-1499.6 847.01) rotate(-45.33)"/><ellipse class="cls-16" cx="264.37" cy="2219.05" rx="48.01" ry="53.11" transform="translate(-1499.6 847.01) rotate(-45.33)"/><circle cx="190.53" cy="2293.66" r="19.97"/><circle class="cls-17" cx="335.09" cy="2147.42" r="19.97"/><circle class="cls-18" cx="264.37" cy="2219.05" r="34.84"/><path class="cls-9" d="M211.5,2222.3s29.51,29.18,53.66,32.32,32.83,1.36,37.77-11.8-4.3-42.25-18.09-57.81-26.25-31.71-37.91-11.75-26.68,27.37-26.68,27.37S200.8,2208.27,211.5,2222.3Z"/><g class="cls-33"><path class="cls-20" d="M255.36,2196.18A36.25,36.25,0,0,0,267,2212.33c8.73,6.71,9.88,5.54,12,8.43s7.3,6.51,6.19,15.79l4.93,4.8s11-5.66,11.81,5.53l9.74-19.17-11-26.19-26.2-25.14-6.75-.52-9,4.78Z"/><path d="M251.33,2166.47s24.92,2,25.61,21.48c0,0,21.9,14,15.83,34.08,0,0,10.9,14.22,10.37,23.69,0,0,13-20.54-8-50.54S257.83,2154.47,251.33,2166.47Z"/><path class="cls-21" d="M265.07,2205s12.53-3.36,11.9-12.43C277,2192.58,276,2198.57,265.07,2205Z"/><path class="cls-21" d="M266.81,2205.58s12.33-4.71,11.9-11.27c0,0,2.36,6.16.82,7.72S274,2211.52,266.81,2205.58Z"/><path class="cls-22" d="M239,2231.41s11-5.66,12.86-13.39C251.82,2218,253.24,2229.4,239,2231.41Z"/><path class="cls-23" d="M267.09,2209.57l-.17-.14c-1-.87-12.05-10.49-7.4-3.4,4.1,6.26,14.13,13.42,17.18,15.52a2.31,2.31,0,0,0,3-.29c.61-.65.94-1.78.27-3.73,0,0-.44-1.31-5.72-3.91A53.17,53.17,0,0,1,267.09,2209.57Z"/><path class="cls-21" d="M274.79,2191.62s-9-17.85-14.4-8.57-1.44,12.48-1.24,14.18,6.83,4.49,7,3.54,8.63-9.15,8.63-9.15"/><path d="M257.47,2193.66s-1.31,6-4.42,2.54,4.93-15.09,4.93-15.09a11.73,11.73,0,0,1,13.1-5.1s-6.95.82-8.28,3.72S257.47,2193.66,257.47,2193.66Z"/><path d="M240.58,2210.75s6-1.38,2.48-4.45-15,5.11-15,5.11a11.7,11.7,0,0,0-4.94,13.15s.73-6.95,3.62-8.32S240.58,2210.75,240.58,2210.75Z"/><path d="M263.9,2203.86s-.44-9.65,12.86-13.79C276.76,2190.07,276,2197.41,263.9,2203.86Z"/><path d="M237.8,2230.26s-.44-9.65,12.85-13.78C250.65,2216.48,249.92,2223.82,237.8,2230.26Z"/><path d="M272.84,2242.64a17.28,17.28,0,0,0,1.93-5.9c.48-3.44,4.89-4,4.89-4s.47-4.42,3.9-4.93a17.57,17.57,0,0,0,6.37-2.49Z"/><path d="M273.39,2242s16.21-1.25,15.55-15.73Z"/><path class="cls-24" d="M255.88,2212.19s11,8.06,13.43,14.23c0,0,4.63,2.68,5.95-.29s-.52-4.79-7-9.29A53.53,53.53,0,0,1,257,2205.72S247.63,2205,255.88,2212.19Z"/><path class="cls-24" d="M267.25,2225.51s-3.2,2.09-1.87,4.54,2.29,2.63,2.29,2.63S265.56,2228.35,267.25,2225.51Z"/><path d="M272.55,2228.5s-4.15,1.16-4.32,3.61S272.55,2228.5,272.55,2228.5Z"/></g><text class="cls-25" transform="translate(205.57 2346.35) rotate(-45.33)">100</text><text class="cls-26" transform="translate(323.55 2175.04) rotate(-45.33)">100</text><text class="cls-27" transform="translate(154.81 2296.17) rotate(-45.33)">100</text><rect class="cls-14" x="148.38" y="2139.62" width="328.84" height="132.55" transform="translate(-1911.62 2080.42) rotate(-78.7)"/><rect class="cls-15" x="162.83" y="2151.51" width="299.95" height="108.76" transform="translate(-1911.62 2080.42) rotate(-78.7)"/><ellipse class="cls-16" cx="312.8" cy="2205.89" rx="48.01" ry="53.11" transform="translate(-1911.62 2080.42) rotate(-78.7)"/><circle cx="292.17" cy="2308.82" r="19.97"/><circle class="cls-17" cx="332.46" cy="2107.17" r="19.97"/><circle class="cls-18" cx="312.8" cy="2205.89" r="34.84"/><path class="cls-10" d="M270.43,2237.69s40.7,8.13,62.59-2.52,28.16-16.93,25.06-30.64-26.84-32.92-46.92-38.33-39.35-12-38.12,11-7.22,37.54-7.22,37.54S253.78,2231.86,270.43,2237.69Z"/><g class="cls-34"><path class="cls-20" d="M292.7,2191.75a36.26,36.26,0,0,0,18.63,7.06c11,.8,11.3-.8,14.67.43s9.68,1.43,13.86,9.78l6.76,1.3s6.05-10.77,12.9-1.88l-2.41-21.36-23.56-15.85-35.72-6.58-5.92,3.28-4.92,9Z"/><path d="M273,2169.16s21.89-12.06,33.2,3.85c0,0,26-.38,32,19.75,0,0,16.92,5.88,21.68,14.08,0,0-.43-24.31-34.49-37.8S271.81,2155.56,273,2169.16Z"/><path class="cls-21" d="M305.65,2193.78s8.62-9.69,3.11-16.92C308.76,2176.86,311.27,2182.37,305.65,2193.78Z"/><path class="cls-21" d="M307.42,2193.3s7.71-10.71,3.75-16c0,0,5.35,3.86,4.92,6S316.68,2194.31,307.42,2193.3Z"/><path class="cls-22" d="M298.38,2230.19s6.05-10.76,3.37-18.26C301.75,2211.93,309.19,2220.66,298.38,2230.19Z"/><path class="cls-23" d="M309.85,2196.48l-.21,0c-1.31-.18-15.84-2.14-8.06,1.23,6.87,3,19.19,3.43,22.88,3.51a2.33,2.33,0,0,0,2.36-1.9c.14-.87-.2-2-1.83-3.26,0,0-1.09-.85-6.93-.12A53.45,53.45,0,0,1,309.85,2196.48Z"/><path class="cls-21" d="M306.41,2177.25s-17.32-10-16.74.77,5.66,11.21,6.76,12.52,8.17,0,7.81-.9,2.17-12.39,2.17-12.39"/><path d="M293.07,2188.48s2.2,5.73-2.3,4.55-4.18-15.31-4.18-15.31a11.72,11.72,0,0,1,8.14-11.46s-5.36,4.5-4.88,7.66S293.07,2188.48,293.07,2188.48Z"/><path d="M288.36,2212.05s4.23-4.44-.38-5.08-9.74,12.53-9.74,12.53a11.72,11.72,0,0,0,3.11,13.7s-3.21-6.21-1.55-8.94S288.36,2212.05,288.36,2212.05Z"/><path d="M304.05,2193.46s-5.68-7.82,3.15-18.58C307.2,2174.88,310.63,2181.41,304.05,2193.46Z"/><path d="M296.77,2229.87s-5.67-7.82,3.16-18.58C299.93,2211.29,303.36,2217.82,296.77,2229.87Z"/><path d="M332.85,2220.93a17.37,17.37,0,0,0-1.64-6c-1.49-3.13,1.91-6,1.91-6s-2-3.95.54-6.26a17.53,17.53,0,0,0,3.95-5.59Z"/><path d="M333,2220.12s12.85-10,4.33-21.69Z"/><path class="cls-24" d="M301.93,2204.84s13.65.66,19,4.49c0,0,5.34-.31,4.81-3.52s-3.07-3.71-10.95-3.91a53.57,53.57,0,0,1-15.5-3.09S291.09,2203.36,301.93,2204.84Z"/><path class="cls-24" d="M318.75,2209.7s-1.52,3.51.94,4.82,3.36.94,3.36.94S318.91,2213,318.75,2209.7Z"/><path d="M324.83,2209.28s-2.83,3.25-1.63,5.4S324.83,2209.28,324.83,2209.28Z"/></g><text class="cls-25" transform="matrix(0.2, -0.98, 0.98, 0.2, 333.78, 2344.57)">100</text><text class="cls-26" transform="matrix(0.2, -0.98, 0.98, 0.2, 338.07, 2136.6)">100</text><text class="cls-27" transform="matrix(0.2, -0.98, 0.98, 0.2, 263.78, 2330.58)">100</text></g><rect class="cls-35" x="-104" y="1267" width="1346" height="1175"/><g id="glass"><ellipse class="cls-36" cx="1035.5" cy="49" rx="204.5" ry="201"/><circle class="cls-37" cx="1018" cy="37" r="182"/><circle class="cls-11" cx="1018" cy="37" r="174.21"/><g class="cls-38"><path class="cls-39" d="M841.84,57.44s9.4,83.95,51.42,112.05,68.29,35.88,68.29,35.88,46.08,6.94,64.4-3.83S928.46,227.76,841.84,57.44Z"/></g><circle class="cls-40" cx="1018" cy="37" r="164.48"/><circle class="cls-41" cx="1018" cy="37" r="111.93"/><circle class="cls-3" cx="1018" cy="37" r="145.02"/><g class="cls-42"><path class="cls-39" d="M1015.08,169.36s81.75-2.92,89.54-44.77,27.25-44.77,32.12-37.95S1165,38,1165,38l-11.68,86.62-70.07,55.48s-80.78,20.44-104.14,6.81S1015.08,169.36,1015.08,169.36Z"/><path class="cls-43" d="M1110.46,127.51s6.81-24.33,16.55-29.19,16.54,0,24.33-14.6S1139.66,118.75,1110.46,127.51Z"/><path class="cls-44" d="M1055,131.41s31.14,17.88,37.12-4.28c2.57-9.55-1.74-19.58-10.08-24.92-6.76-4.34-15-12-18.28-24.33-5.84-22.39-38-38.93-31.14-22.39s30.17,50.61,25.3,59.37-62.29,32.12-52.55,36S1045.25,123.62,1055,131.41Z"/><path class="cls-45" d="M1062.77,117.78s1,15.57,11.68,15.57,7.79-19.46,7.79-19.46-7.79-15.57-13.63-10.71S1062.77,117.78,1062.77,117.78Z"/></g><path class="cls-46" d="M916.92,69.73s37.1,50.58,38.78,80.93,94.42-35.41,94.42-35.41-47.21-91-45.52-99.47S910.18,52.87,916.92,69.73Z"/><path class="cls-47" d="M971.86-68S935.43-12.71,906,.1s69.72,80.43,69.72,80.43S1048.49.38,1057.45-1,986.07-80.86,971.86-68Z"/><path class="cls-11" d="M908,3.91s43.8-25.31,62.29-59.37c0,0,2-7.79,5.84-1S910.94,18.51,908,3.91Z"/><path class="cls-11" d="M1037.47-33.07s26.48-33.28,32.22-29.78,15.47,29.78,35.9,38.53,37,29.2,37,29.2-27.25-24.33-34.07-23.36-38-31.14-38.93-37.95S1037.47-33.07,1037.47-33.07Z"/><path class="cls-47" d="M1147.5.9s-56.41-34.65-70.16-63.64S999.17,9.5,999.17,9.5s82.44,70.17,84.15,79.08S1160.81,14.69,1147.5.9Z"/><path class="cls-11" d="M1012.16,52.57s30.17,54.5,27.25,59.37-36,25.31-36,25.31,35-23.36,32.12-28.23S1012.16,52.57,1012.16,52.57Z"/><path class="cls-11" d="M1056,48.68s27.25,27.25,28.22,29.2,14.6-3.9,17.52-10.71S1086.13,74,1086.13,74Z"/><path class="cls-11" d="M928.46,79.82s25.3,43.8,25.3,52.56S961.55,115.83,928.46,79.82Z"/></g><g id="Sign_in" data-name="Sign in"><rect class="cls-48" x="61.5" y="259.5" width="1002" height="1917"/><rect class="cls-49" x="98" y="290.07" width="929" height="1855.86" rx="262.43"/><text class="cls-50" transform="translate(375.35 647.11)">Si<tspan class="cls-51" x="88.2" y="0">g</tspan><tspan class="cls-52" x="155.29" y="0">n </tspan><tspan class="cls-53" x="248.34" y="0">I</tspan><tspan x="278.55" y="0">n</tspan></text><path class="cls-11" d="M161.74,296.16l2.31,2.53c2.39,2.57,4.69,5.22,7.18,7.7a14.66,14.66,0,0,0,6.89,3.73A13.52,13.52,0,0,0,194.83,300a12.24,12.24,0,0,0-.87-8.93,8,8,0,0,0-9-4.12,18.73,18.73,0,0,0-1.89.8c4.37.41,7.19,2,7.83,6a7.07,7.07,0,0,1-2.52,6.63,9.55,9.55,0,0,1-1-.92c-1.58-1.87-2.18-2.05-4.21-.76a6.78,6.78,0,0,1-6.21.59,8.07,8.07,0,0,1-5.53-9.2,11.61,11.61,0,0,1,10.27-9.61,22.26,22.26,0,0,1,5.65.1c6.3.92,10.32,4.48,12.21,10.36a20.43,20.43,0,0,1,0,13c-2.54,7.6-8.52,10.82-16,10.53a23.86,23.86,0,0,1-10.2-2.88,15.87,15.87,0,0,1-6.06-5.24c-2-3-3.81-6.15-5.69-9.24a3.32,3.32,0,0,1-.25-.71Z"/><path class="cls-11" d="M100.05,386a7.46,7.46,0,0,1-7.85,2.36c-3.4-1-4.91-3.38-5.07-6.8-1,.44-1,1.29-1.14,2a7.64,7.64,0,0,0,4.22,7.79,12.94,12.94,0,0,0,9,1,13.86,13.86,0,0,0,9.65-6.61c2.64-4.47,2.1-9-.42-13.36a18.69,18.69,0,0,0-3.51-4.28c-2.43-2.24-5.06-4.27-7.61-6.39a4,4,0,0,1-1.34-1.6,2.26,2.26,0,0,1,.84.1c3,1.69,6.11,3.31,9.06,5.13C113,369.79,116,380.25,114,387a14.17,14.17,0,0,1-10,9.86,22.58,22.58,0,0,1-15-.39,14.88,14.88,0,0,1-9.47-16.8,11.57,11.57,0,0,1,6.69-9,10.15,10.15,0,0,1,7.76-.56,7.51,7.51,0,0,1,4.28,11.06c-1.1,1.83-1,2.51.66,3.82C99.23,385.27,99.58,385.59,100.05,386Z"/><path class="cls-11" d="M168.47,312.91a13.36,13.36,0,0,1-1.75,1.61,13,13,0,0,1-11.65,1.34,6.64,6.64,0,0,0-5.23.07,13.24,13.24,0,0,1-8.22.78c-2.53-.59-3.63-2.14-3.39-4.89a24.12,24.12,0,0,0,2.32.76,7.79,7.79,0,0,0,9.39-5.51,15.3,15.3,0,0,0-2.68-13.72,22.52,22.52,0,0,0-24-8.25,36.32,36.32,0,0,0-11.72,5.33c-2.23,1.53-4.41,3.13-6.76,4.46A32.27,32.27,0,0,1,99.58,297a2.21,2.21,0,0,1-1.63-.26,10.81,10.81,0,0,1,1-.39,19.94,19.94,0,0,0,8.2-4.77,64,64,0,0,1,5.73-5.08c8.55-6.15,18-8.39,28.31-5.16a26.94,26.94,0,0,1,15.66,12.57c1.92,3.37,3.37,7,5.16,10.45a61.16,61.16,0,0,0,3.76,6.32A14.36,14.36,0,0,0,168.47,312.91Z"/><path class="cls-11" d="M96.59,298.41a9.76,9.76,0,0,1-.43,2.68A51.9,51.9,0,0,1,93,307c-1.32,2.08-3,4-4.31,6-3.4,5.13-5.65,10.69-5.23,16.87.55,8,4.66,14,11.89,17.79A15.67,15.67,0,0,0,106.2,349c5.36-1.13,7.88-5.82,5.82-10.74-.1-.24-.17-.48-.26-.74,2.45-.42,4.2.54,4.9,2.73a11.87,11.87,0,0,1-.14,7.22,12.38,12.38,0,0,1-.59,1.53,5.56,5.56,0,0,0,0,4.7,12.16,12.16,0,0,1-1.19,11.14,11.53,11.53,0,0,1-1.38,1.61c-.33-.08-.51-.07-.58-.16-2.5-2.9-5.84-4.55-9.34-6-3.33-1.41-6.69-2.81-9.86-4.52a27.86,27.86,0,0,1-14-17.54c-1.59-5.64-.63-11.17,1.16-16.62a25.3,25.3,0,0,1,5.56-9.48c1.46-1.56,2.95-3.09,4.45-4.61a18.64,18.64,0,0,0,5.09-8.31,5.42,5.42,0,0,1,.35-.83Z"/><path class="cls-11" d="M115.8,368.65c.34.48.73.93,1,1.43A19.33,19.33,0,0,1,119.5,380a29.92,29.92,0,0,1-7.94,20.9c-3,3.22-6.37,6.09-9.6,9.1-1.56,1.45-3.24,2.8-4.73,4.32a8.52,8.52,0,0,0-2.53,5.46c-.17,2.55,1.14,4.17,3.76,4.5a23.51,23.51,0,0,0,3.14,0h1.83a6.47,6.47,0,0,1-7.46,4.8c-3.29-.63-3.28-.62-4.93,2.21A16.22,16.22,0,0,1,85,437.38a6,6,0,0,1-4.27,1,3.75,3.75,0,0,1,.4-1c2.28-2.66,2.28-5.71,1.71-8.88a47.09,47.09,0,0,1-.77-4.83c-.4-6,1.71-11,6.69-14.57a102.2,102.2,0,0,1,9.71-5.62c2.6-1.46,5.26-2.82,7.86-4.28,10.58-5.93,12.78-16.53,10.52-25.62-.4-1.62-.9-3.21-1.35-4.82Z"/><path class="cls-11" d="M242.22,281.68a3.66,3.66,0,0,1-.4,3.2,15.23,15.23,0,0,1-6.56,6.68c-3.17,1.76-3.46,1.17-2.56,5.08.74,3.22-1.52,6.35-5,7.07.06-.76.17-1.46.16-2.15a14.92,14.92,0,0,0-.22-3.42,3.89,3.89,0,0,0-4.62-2.91,9.81,9.81,0,0,0-5.6,2.59c-1.45,1.37-2.82,2.83-4.15,4.31a81.09,81.09,0,0,1-10,9.89,32.61,32.61,0,0,1-21.75,7.25,21.05,21.05,0,0,1-9.62-2.56,11.63,11.63,0,0,1-1-.67c-.09-.07-.13-.22-.39-.69,1.14.32,2,.56,2.9.82a27.93,27.93,0,0,0,14.71.61,20.72,20.72,0,0,0,12-7.64c3.12-4,5.29-8.61,7.8-13a45.91,45.91,0,0,1,4.7-7.2c4.07-4.71,9.43-6.62,15.75-5.84,1.53.18,3,.47,4.55.75a10,10,0,0,0,8.35-1.69A5.48,5.48,0,0,1,242.22,281.68Z"/><path class="cls-11" d="M105.77,303.67a19,19,0,0,0,9.76,3c1.35.05,2.12.53,2.36,1.73a36.36,36.36,0,0,1,.84,5.15c.12,2,.11,4,1.27,5.85.1.16,0,.48-.08.72l0,0a6.83,6.83,0,0,0-4.27-1.45,40.47,40.47,0,0,1-4.81-.31,36.57,36.57,0,0,1-4.07-1.12c-1-6.7-1.47-8.22-3.66-11.77,1,3.86,2.47,7.26,2.15,11-1.61.86-3.21,1.38-5,.51-1.25-.61-1.46-1.09-1.25-2.44.24-1.57.45-3.14.68-4.71l-.52-.12c-.27.73-.54,1.46-.82,2.18-.22.57-.44,1.15-.69,1.71A6.5,6.5,0,0,1,90.1,317a3.86,3.86,0,0,1-.81-.54,15.2,15.2,0,0,1,1.13-1.22,21.88,21.88,0,0,0,6.33-9.22,33.8,33.8,0,0,0,1.64-4.82,3,3,0,0,1,2.59-2.45c2-.54,4-1.26,5.94-2a21.33,21.33,0,0,0,8.23-5.49c.41-.44.87-.82,1.46-1.37a7.3,7.3,0,0,1,.73,1.39,6.08,6.08,0,0,1-3.65,6.78c-2,.78-4.19,1.34-6.29,2.15,2.46-.26,4.93-.44,7.37-.84a1.89,1.89,0,0,1,2.11.84c.89,1.24,1,3.75-.06,4.8a2.45,2.45,0,0,1-1.87.49c-2.27-.37-4.51-.89-6.77-1.35l-2.44-.51-.3-.13Zm-6.09,4.66H99.5v.86h.25Z"/><path class="cls-11" d="M120.37,300.28c.45,2.17.86,4.36,1.36,6.52,1.16,5,3.42,9.31,7.68,12.49a13.22,13.22,0,0,0,5.73,2.84,6.68,6.68,0,0,0,2.67-.13,2.1,2.1,0,0,0,1.69-2.06c.09-1.42.43-1.69,1.83-2a4.64,4.64,0,0,1,5.3,1.93c.25.33.46.69.69,1,1,1.45,1,1.44,2.66.72a15.34,15.34,0,0,1,9.2-1.24,8.06,8.06,0,0,1,5.81,4.49c-.19.14-.31.29-.38.27a10.28,10.28,0,0,0-8.61,1.31,26.79,26.79,0,0,1-17.75,3.38,19.26,19.26,0,0,1-16.54-14.73A59.79,59.79,0,0,1,120.37,300.28Z"/><path class="cls-11" d="M94.31,295.19a30.16,30.16,0,0,1,.19,4.24,9,9,0,0,1-7.21,7.78,6.07,6.07,0,0,1-7.53-5.46,4.37,4.37,0,0,1,2-4.21,4.74,4.74,0,0,1,5-.22c-.35.49-.61.88-.91,1.24-.57.69-.9,1.39-.24,2.2a2.27,2.27,0,0,0,2.67.54,2.93,2.93,0,0,0,1.79-2.57,14.62,14.62,0,0,0-.21-3.43,11.58,11.58,0,0,0-.84-2.51c-1.33-3.22-2.64-4.33-6.16-5a9.76,9.76,0,0,0-2.66.33c-1.91-2.26-1.09-5.19-1.4-8.16,3,.22,6-.54,8.77,1.45-1.35,1.36-.37,2.65-.07,4.06.54,2.53,2.42,3.5,4.52,4.3a14.41,14.41,0,0,0,3.81,1.05,9.32,9.32,0,0,0,3.67-.45,2.27,2.27,0,0,0,1.49-2.81,1.67,1.67,0,0,0-2.72-1c-.46.3-.86.67-1.28,1-2.32-2.09.2-6.23,2.68-6.66,4.12-.72,7.62,2.12,7.38,6.19a9,9,0,0,1-8.16,8,35.82,35.82,0,0,1-4.37-.26l-.51.07Z"/><path class="cls-11" d="M103.56,320.27a1.85,1.85,0,0,1,.58-.18c4.19.27,8.4.5,12.43,1.74,8.11,2.49,12.64,8.06,13.83,16.06a23.75,23.75,0,0,1-2.73,15.38c-2.72,4.9-2.69,4.91-2.29,10.18a8,8,0,0,1-4.94-6.66,14.89,14.89,0,0,1,1.25-7.55c.25-.56.52-1.11.89-1.9l-2.46-1.71c-2.13-1.5-2.75-3.46-1.87-5.71a1.7,1.7,0,0,1,1.65-1.26c1.71-.12,2.65-.93,2.61-2.53a9.48,9.48,0,0,0-.9-3.9,18.63,18.63,0,0,0-10.37-9.33c-1.87-.73-3.87-1.15-5.81-1.7-.63-.18-1.27-.34-1.91-.51Z"/><path class="cls-11" d="M89.21,320.19c0,1.52,0,3.86,0,6.2a13.63,13.63,0,0,0,1.83,7,9,9,0,0,0,7.33,4.45,6.77,6.77,0,0,0,6.8-3.51l.61-1a2.42,2.42,0,0,1,1.91,1.81,6.47,6.47,0,0,1-5.14,8.81,10.69,10.69,0,0,1-4.14-.18,14.82,14.82,0,0,1-11.21-13.66A22.4,22.4,0,0,1,89.21,320.19Z"/><path class="cls-11" d="M121.77,290c8.46-4.16,19.29-1.78,22.86,8.2a8.11,8.11,0,0,1,.13,5.58,6.8,6.8,0,0,1-8.82,4.05c-1-.36-1.05-.42-2-1.78a3.31,3.31,0,0,1,.61-.45c2.86-1.2,5-4.32,3.77-8.53a9,9,0,0,0-5.71-6.07,20,20,0,0,0-8.65-1.13Z"/><path class="cls-11" d="M200.46,317.25a5.2,5.2,0,0,1-.51.63,19.54,19.54,0,0,0-5.72,8.6c-.66,2-1.55,2.56-3.6,2.34a35.57,35.57,0,0,1-22.2-10.77,2,2,0,0,1-.31-.51c0-.05,0-.12,0-.42,1,.46,1.92.86,2.82,1.29a30.25,30.25,0,0,0,11.78,3.35,25.9,25.9,0,0,0,16-3.95c.49-.33,1-.59,1.54-.88Z"/><path class="cls-11" d="M116.85,397.71c7.6-10.24,6.46-20.61.76-31.24a6.26,6.26,0,0,1,1,.67,34.2,34.2,0,0,1,10.54,19.93,13.94,13.94,0,0,1,.1,1.83,2.53,2.53,0,0,1-1.85,2.66c-.46.17-.91.36-1.37.51a17.51,17.51,0,0,0-7.36,4.56c-.46.47-1,.92-1.43,1.38Z"/><path class="cls-11" d="M119.92,320.15l.25-.19-.23.15Z"/><path class="cls-11" d="M960.26,296.16,958,298.69c-2.39,2.57-4.69,5.22-7.18,7.7a14.66,14.66,0,0,1-6.89,3.73A13.52,13.52,0,0,1,927.17,300a12.24,12.24,0,0,1,.87-8.93,8,8,0,0,1,9-4.12,18.73,18.73,0,0,1,1.89.8c-4.37.41-7.19,2-7.83,6a7.07,7.07,0,0,0,2.52,6.63,9.55,9.55,0,0,0,1-.92c1.58-1.87,2.18-2.05,4.21-.76a6.78,6.78,0,0,0,6.21.59,8.07,8.07,0,0,0,5.53-9.2,11.61,11.61,0,0,0-10.27-9.61,22.26,22.26,0,0,0-5.65.1c-6.3.92-10.32,4.48-12.21,10.36a20.43,20.43,0,0,0,0,13c2.54,7.6,8.52,10.82,16,10.53a23.86,23.86,0,0,0,10.2-2.88,15.87,15.87,0,0,0,6.06-5.24c2-3,3.81-6.15,5.69-9.24a3.32,3.32,0,0,0,.25-.71Z"/><path class="cls-11" d="M1022,386a7.46,7.46,0,0,0,7.85,2.36c3.4-1,4.91-3.38,5.07-6.8,1,.44,1,1.29,1.14,2a7.64,7.64,0,0,1-4.22,7.79,12.94,12.94,0,0,1-9,1,13.86,13.86,0,0,1-9.65-6.61c-2.64-4.47-2.1-9,.42-13.36a18.69,18.69,0,0,1,3.51-4.28c2.43-2.24,5.06-4.27,7.61-6.39a4,4,0,0,0,1.34-1.6,2.26,2.26,0,0,0-.84.1c-3,1.69-6.11,3.31-9.06,5.13C1009,369.79,1006,380.25,1008,387a14.17,14.17,0,0,0,10,9.86,22.58,22.58,0,0,0,15-.39,14.88,14.88,0,0,0,9.47-16.8,11.57,11.57,0,0,0-6.69-9,10.15,10.15,0,0,0-7.76-.56,7.51,7.51,0,0,0-4.28,11.06c1.1,1.83,1,2.51-.66,3.82C1022.77,385.27,1022.42,385.59,1022,386Z"/><path class="cls-11" d="M953.53,312.91a13.36,13.36,0,0,0,1.75,1.61,13,13,0,0,0,11.65,1.34,6.64,6.64,0,0,1,5.23.07,13.24,13.24,0,0,0,8.22.78c2.53-.59,3.63-2.14,3.39-4.89a24.12,24.12,0,0,1-2.32.76,7.79,7.79,0,0,1-9.39-5.51,15.3,15.3,0,0,1,2.68-13.72,22.52,22.52,0,0,1,24-8.25,36.32,36.32,0,0,1,11.72,5.33c2.23,1.53,4.41,3.13,6.76,4.46a32.27,32.27,0,0,0,5.21,2.06,2.21,2.21,0,0,0,1.63-.26,10.81,10.81,0,0,0-1-.39,19.94,19.94,0,0,1-8.2-4.77,64,64,0,0,0-5.73-5.08c-8.55-6.15-18-8.39-28.31-5.16a26.94,26.94,0,0,0-15.66,12.57c-1.92,3.37-3.37,7-5.16,10.45a61.16,61.16,0,0,1-3.76,6.32A14.36,14.36,0,0,1,953.53,312.91Z"/><path class="cls-11" d="M1025.41,298.41a9.76,9.76,0,0,0,.43,2.68,51.9,51.9,0,0,0,3.13,6c1.32,2.08,3,4,4.31,6,3.4,5.13,5.65,10.69,5.23,16.87-.55,8-4.66,14-11.89,17.79A15.67,15.67,0,0,1,1015.8,349c-5.36-1.13-7.88-5.82-5.82-10.74.1-.24.17-.48.26-.74-2.45-.42-4.2.54-4.9,2.73a11.87,11.87,0,0,0,.14,7.22,12.38,12.38,0,0,0,.59,1.53,5.56,5.56,0,0,1,0,4.7,12.16,12.16,0,0,0,1.19,11.14,11.53,11.53,0,0,0,1.38,1.61c.33-.08.51-.07.58-.16,2.5-2.9,5.84-4.55,9.34-6,3.33-1.41,6.69-2.81,9.86-4.52a27.86,27.86,0,0,0,14-17.54c1.59-5.64.63-11.17-1.16-16.62a25.3,25.3,0,0,0-5.56-9.48c-1.46-1.56-3-3.09-4.45-4.61a18.64,18.64,0,0,1-5.09-8.31,5.42,5.42,0,0,0-.35-.83Z"/><path class="cls-11" d="M1006.2,368.65c-.34.48-.73.93-1,1.43a19.33,19.33,0,0,0-2.68,9.93,29.92,29.92,0,0,0,7.94,20.9c3,3.22,6.37,6.09,9.6,9.1,1.56,1.45,3.24,2.8,4.73,4.32a8.52,8.52,0,0,1,2.53,5.46c.17,2.55-1.14,4.17-3.76,4.5a23.51,23.51,0,0,1-3.14,0h-1.83a6.47,6.47,0,0,0,7.46,4.8c3.29-.63,3.28-.62,4.93,2.21a16.22,16.22,0,0,0,6,6.09,6,6,0,0,0,4.27,1,3.75,3.75,0,0,0-.4-1c-2.28-2.66-2.28-5.71-1.71-8.88a47.09,47.09,0,0,0,.77-4.83c.4-6-1.71-11-6.69-14.57a102.2,102.2,0,0,0-9.71-5.62c-2.6-1.46-5.26-2.82-7.86-4.28-10.58-5.93-12.78-16.53-10.52-25.62.4-1.62.9-3.21,1.35-4.82Z"/><path class="cls-11" d="M879.78,281.68a3.66,3.66,0,0,0,.4,3.2,15.23,15.23,0,0,0,6.56,6.68c3.17,1.76,3.46,1.17,2.56,5.08-.74,3.22,1.52,6.35,5,7.07-.06-.76-.17-1.46-.16-2.15a14.92,14.92,0,0,1,.22-3.42,3.89,3.89,0,0,1,4.62-2.91,9.81,9.81,0,0,1,5.6,2.59c1.45,1.37,2.82,2.83,4.15,4.31a81.09,81.09,0,0,0,10,9.89,32.61,32.61,0,0,0,21.75,7.25,21.05,21.05,0,0,0,9.62-2.56,11.63,11.63,0,0,0,1-.67c.09-.07.13-.22.39-.69-1.14.32-2,.56-2.9.82a27.93,27.93,0,0,1-14.71.61,20.72,20.72,0,0,1-12-7.64c-3.12-4-5.29-8.61-7.8-13a45.91,45.91,0,0,0-4.7-7.2c-4.07-4.71-9.43-6.62-15.75-5.84-1.53.18-3,.47-4.55.75a10,10,0,0,1-8.35-1.69A5.48,5.48,0,0,0,879.78,281.68Z"/><path class="cls-11" d="M1016.56,303.57l-.3.13-2.44.51c-2.26.46-4.5,1-6.77,1.35a2.45,2.45,0,0,1-1.87-.49c-1-1.05-.95-3.56-.06-4.8a1.89,1.89,0,0,1,2.11-.84c2.44.4,4.91.58,7.37.84-2.1-.81-4.25-1.37-6.29-2.15a6.08,6.08,0,0,1-3.65-6.78,7.3,7.3,0,0,1,.73-1.39c.59.55,1.05.93,1.46,1.37a21.33,21.33,0,0,0,8.23,5.49c1.95.72,3.93,1.44,5.94,2a3,3,0,0,1,2.59,2.45,33.8,33.8,0,0,0,1.64,4.82,21.88,21.88,0,0,0,6.33,9.22,15.2,15.2,0,0,1,1.13,1.22,3.86,3.86,0,0,1-.81.54,6.5,6.5,0,0,1-7.61-3.41c-.25-.56-.47-1.14-.69-1.71-.28-.72-.55-1.45-.82-2.18l-.52.12c.23,1.57.44,3.14.68,4.71.21,1.35,0,1.83-1.25,2.44-1.76.87-3.36.35-5-.51-.32-3.78,1.18-7.18,2.15-11-2.19,3.55-2.66,5.07-3.66,11.77a36.57,36.57,0,0,1-4.07,1.12,40.47,40.47,0,0,1-4.81.31,6.83,6.83,0,0,0-4.27,1.45l0,0c0-.24-.18-.56-.08-.72,1.16-1.81,1.15-3.82,1.27-5.85a36.36,36.36,0,0,1,.84-5.15c.24-1.2,1-1.68,2.36-1.73a19,19,0,0,0,9.76-3Zm5.69,5.62h.25v-.86h-.18Z"/><path class="cls-11" d="M1001.63,300.28c-.45,2.17-.86,4.36-1.36,6.52-1.16,5-3.42,9.31-7.68,12.49a13.22,13.22,0,0,1-5.73,2.84,6.68,6.68,0,0,1-2.67-.13,2.1,2.1,0,0,1-1.69-2.06c-.09-1.42-.43-1.69-1.83-2a4.64,4.64,0,0,0-5.3,1.93c-.25.33-.46.69-.69,1-1,1.45-1,1.44-2.66.72a15.34,15.34,0,0,0-9.2-1.24,8.06,8.06,0,0,0-5.81,4.49c.19.14.31.29.38.27a10.28,10.28,0,0,1,8.61,1.31,26.79,26.79,0,0,0,17.75,3.38,19.26,19.26,0,0,0,16.54-14.73A59.79,59.79,0,0,0,1001.63,300.28Z"/><path class="cls-11" d="M1027.69,295.19a30.16,30.16,0,0,0-.19,4.24,9,9,0,0,0,7.21,7.78,6.07,6.07,0,0,0,7.53-5.46,4.37,4.37,0,0,0-2-4.21,4.74,4.74,0,0,0-5-.22c.35.49.61.88.91,1.24.57.69.9,1.39.24,2.2a2.27,2.27,0,0,1-2.67.54,2.93,2.93,0,0,1-1.79-2.57,14.62,14.62,0,0,1,.21-3.43,11.58,11.58,0,0,1,.84-2.51c1.33-3.22,2.64-4.33,6.16-5a9.76,9.76,0,0,1,2.66.33c1.91-2.26,1.09-5.19,1.4-8.16-3,.22-6-.54-8.77,1.45,1.35,1.36.37,2.65.07,4.06-.54,2.53-2.42,3.5-4.52,4.3a14.41,14.41,0,0,1-3.81,1.05,9.32,9.32,0,0,1-3.67-.45,2.27,2.27,0,0,1-1.49-2.81,1.67,1.67,0,0,1,2.72-1c.46.3.86.67,1.28,1,2.32-2.09-.2-6.23-2.68-6.66-4.12-.72-7.62,2.12-7.38,6.19a9,9,0,0,0,8.16,8,35.82,35.82,0,0,0,4.37-.26l.51.07Z"/><path class="cls-11" d="M1018.44,320.27a1.85,1.85,0,0,0-.58-.18c-4.19.27-8.4.5-12.43,1.74-8.11,2.49-12.64,8.06-13.83,16.06a23.75,23.75,0,0,0,2.73,15.38c2.72,4.9,2.69,4.91,2.29,10.18a8,8,0,0,0,4.94-6.66,14.89,14.89,0,0,0-1.25-7.55c-.25-.56-.52-1.11-.89-1.9l2.46-1.71c2.13-1.5,2.75-3.46,1.87-5.71a1.7,1.7,0,0,0-1.65-1.26c-1.71-.12-2.65-.93-2.61-2.53a9.48,9.48,0,0,1,.9-3.9,18.63,18.63,0,0,1,10.37-9.33c1.87-.73,3.87-1.15,5.81-1.7.63-.18,1.27-.34,1.91-.51Z"/><path class="cls-11" d="M1032.79,320.19c0,1.52,0,3.86,0,6.2a13.63,13.63,0,0,1-1.83,7,9,9,0,0,1-7.33,4.45,6.77,6.77,0,0,1-6.8-3.51l-.61-1a2.42,2.42,0,0,0-1.91,1.81,6.47,6.47,0,0,0,5.14,8.81,10.69,10.69,0,0,0,4.14-.18,14.82,14.82,0,0,0,11.21-13.66A22.4,22.4,0,0,0,1032.79,320.19Z"/><path class="cls-11" d="M1000.23,290c-8.46-4.16-19.29-1.78-22.86,8.2a8.11,8.11,0,0,0-.13,5.58,6.8,6.8,0,0,0,8.82,4.05c1-.36,1.05-.42,2-1.78a3.31,3.31,0,0,0-.61-.45c-2.86-1.2-5-4.32-3.77-8.53a9,9,0,0,1,5.71-6.07,20,20,0,0,1,8.65-1.13Z"/><path class="cls-11" d="M921.54,317.25a5.2,5.2,0,0,0,.51.63,19.54,19.54,0,0,1,5.72,8.6c.66,2,1.55,2.56,3.6,2.34a35.57,35.57,0,0,0,22.2-10.77,2,2,0,0,0,.31-.51c0-.05,0-.12,0-.42-1,.46-1.92.86-2.82,1.29a30.25,30.25,0,0,1-11.78,3.35,25.9,25.9,0,0,1-15.95-3.95c-.49-.33-1-.59-1.54-.88Z"/><path class="cls-11" d="M1005.15,397.71c-7.6-10.24-6.46-20.61-.76-31.24a6.26,6.26,0,0,0-1,.67,34.2,34.2,0,0,0-10.54,19.93,13.94,13.94,0,0,0-.1,1.83,2.53,2.53,0,0,0,1.85,2.66c.46.17.91.36,1.37.51a17.51,17.51,0,0,1,7.36,4.56c.46.47,1,.92,1.43,1.38Z"/><path class="cls-11" d="M1002.08,320.15l-.25-.19.23.15Z"/><path class="cls-11" d="M960.26,2139.16l-2.31-2.53c-2.39-2.58-4.69-5.23-7.18-7.7a14.58,14.58,0,0,0-6.89-3.73,13.51,13.51,0,0,0-16.71,10.1,12.22,12.22,0,0,0,.87,8.92,8,8,0,0,0,9,4.12,15.94,15.94,0,0,0,1.89-.79c-4.37-.41-7.19-2-7.83-6a7.07,7.07,0,0,1,2.52-6.63,9.55,9.55,0,0,1,1,.92c1.58,1.87,2.18,2.05,4.21.76A6.75,6.75,0,0,1,945,2136a8.07,8.07,0,0,1,5.53,9.2,11.62,11.62,0,0,1-10.27,9.61,22.26,22.26,0,0,1-5.65-.1c-6.3-.92-10.32-4.48-12.21-10.36a20.43,20.43,0,0,1,0-13c2.54-7.6,8.52-10.82,16-10.53a23.86,23.86,0,0,1,10.2,2.88,15.87,15.87,0,0,1,6.06,5.24c2,3,3.81,6.15,5.69,9.24a3.32,3.32,0,0,1,.25.71Z"/><path class="cls-11" d="M1022,2049.34a7.46,7.46,0,0,1,7.85-2.36c3.4,1,4.91,3.38,5.07,6.8,1-.44,1-1.29,1.14-2.05a7.65,7.65,0,0,0-4.22-7.79,12.93,12.93,0,0,0-9-1,13.88,13.88,0,0,0-9.65,6.6c-2.64,4.48-2.1,9,.42,13.37a18.9,18.9,0,0,0,3.51,4.28c2.43,2.24,5.06,4.27,7.61,6.39a4,4,0,0,1,1.34,1.6,2.26,2.26,0,0,1-.84-.1c-3-1.69-6.11-3.31-9.06-5.13-7.12-4.39-10.15-14.85-8.11-21.62a14.17,14.17,0,0,1,10-9.86,22.58,22.58,0,0,1,15,.39,14.87,14.87,0,0,1,9.47,16.8,11.57,11.57,0,0,1-6.69,9,10.2,10.2,0,0,1-7.76.56,7.51,7.51,0,0,1-4.28-11.06c1.1-1.83,1-2.51-.66-3.82C1022.77,2050.05,1022.42,2049.73,1022,2049.34Z"/><path class="cls-11" d="M953.53,2122.41a12.68,12.68,0,0,1,1.75-1.61c3.66-2.17,7.59-2.87,11.65-1.34a6.6,6.6,0,0,0,5.23-.08,13.31,13.31,0,0,1,8.22-.77c2.53.59,3.63,2.14,3.39,4.89a21.63,21.63,0,0,0-2.32-.76,7.79,7.79,0,0,0-9.39,5.51,15.31,15.31,0,0,0,2.68,13.72,22.52,22.52,0,0,0,24,8.25,36.53,36.53,0,0,0,11.72-5.33c2.23-1.53,4.41-3.13,6.76-4.47a33.22,33.22,0,0,1,5.21-2.06,2.22,2.22,0,0,1,1.63.27c-.35.13-.68.29-1,.39a19.94,19.94,0,0,0-8.2,4.77,64,64,0,0,1-5.73,5.08c-8.55,6.14-18,8.39-28.31,5.15a26.89,26.89,0,0,1-15.66-12.56c-1.92-3.37-3.37-7-5.16-10.45a61.16,61.16,0,0,0-3.76-6.32A14,14,0,0,0,953.53,2122.41Z"/><path class="cls-11" d="M1025.41,2136.91a9.76,9.76,0,0,1,.43-2.68,50.29,50.29,0,0,1,3.13-5.95c1.32-2.08,3-4,4.31-6,3.4-5.13,5.65-10.68,5.23-16.86-.55-8-4.66-14-11.89-17.79a15.67,15.67,0,0,0-10.82-1.26c-5.36,1.13-7.88,5.82-5.82,10.74.1.23.17.48.26.74-2.45.42-4.2-.54-4.9-2.73a12.85,12.85,0,0,1,.73-8.75,5.56,5.56,0,0,0,0-4.7,12.16,12.16,0,0,1,1.19-11.14,11.53,11.53,0,0,1,1.38-1.61c.33.08.51.07.58.15,2.5,2.91,5.84,4.56,9.34,6,3.33,1.41,6.69,2.81,9.86,4.52a27.84,27.84,0,0,1,14,17.54c1.59,5.63.63,11.17-1.16,16.62a25.37,25.37,0,0,1-5.56,9.48c-1.46,1.56-3,3.09-4.45,4.61a18.58,18.58,0,0,0-5.09,8.31,5.88,5.88,0,0,1-.35.83Z"/><path class="cls-11" d="M1006.2,2066.67c-.34-.48-.73-.93-1-1.44a19.27,19.27,0,0,1-2.68-9.92,29.92,29.92,0,0,1,7.94-20.9c3-3.22,6.37-6.09,9.6-9.1,1.56-1.46,3.24-2.8,4.73-4.32a8.52,8.52,0,0,0,2.53-5.46c.17-2.55-1.14-4.17-3.76-4.51a23.52,23.52,0,0,0-3.14,0h-1.83a6.47,6.47,0,0,1,7.46-4.8c3.29.62,3.28.62,4.93-2.22a16.29,16.29,0,0,1,6-6.09,6,6,0,0,1,4.27-1,3.75,3.75,0,0,1-.4,1c-2.28,2.66-2.28,5.71-1.71,8.88a47.34,47.34,0,0,1,.77,4.82c.4,6-1.71,11-6.69,14.58a102.2,102.2,0,0,1-9.71,5.62c-2.6,1.45-5.26,2.82-7.86,4.28-10.58,5.92-12.78,16.53-10.52,25.61.4,1.62.9,3.22,1.35,4.83Z"/><path class="cls-11" d="M879.78,2153.64a3.68,3.68,0,0,1,.4-3.21,15.26,15.26,0,0,1,6.56-6.67c3.17-1.76,3.46-1.17,2.56-5.08-.74-3.22,1.52-6.35,5-7.07-.06.76-.17,1.46-.16,2.15a14.83,14.83,0,0,0,.22,3.41,3.88,3.88,0,0,0,4.62,2.92,9.81,9.81,0,0,0,5.6-2.59c1.45-1.37,2.82-2.83,4.15-4.32a81,81,0,0,1,10-9.88,32.67,32.67,0,0,1,21.75-7.26,21.19,21.19,0,0,1,9.62,2.57,11.63,11.63,0,0,1,1,.67c.09.07.13.22.39.69-1.14-.32-2-.56-2.9-.82a27.93,27.93,0,0,0-14.71-.61,20.71,20.71,0,0,0-12,7.63c-3.12,4-5.29,8.62-7.8,13a45.37,45.37,0,0,1-4.7,7.19c-4.07,4.71-9.43,6.62-15.75,5.85-1.53-.19-3-.47-4.55-.76a10,10,0,0,0-8.35,1.7A6.26,6.26,0,0,1,879.78,2153.64Z"/><path class="cls-11" d="M1016.23,2131.65a19,19,0,0,0-9.76-3c-1.35,0-2.12-.53-2.36-1.73a36.49,36.49,0,0,1-.84-5.16c-.12-2-.11-4-1.27-5.85-.1-.16,0-.47.08-.71l0,0a6.77,6.77,0,0,0,4.27,1.45,42.69,42.69,0,0,1,4.81.32,36.57,36.57,0,0,1,4.07,1.12c1,6.69,1.47,8.22,3.66,11.77-1-3.86-2.47-7.26-2.15-11,1.61-.86,3.21-1.38,5-.52,1.25.62,1.46,1.09,1.25,2.45-.24,1.57-.45,3.14-.68,4.71l.52.11c.27-.72.54-1.45.82-2.17s.44-1.15.69-1.71a6.5,6.5,0,0,1,7.61-3.41,3.86,3.86,0,0,1,.81.54,15.2,15.2,0,0,1-1.13,1.22,21.91,21.91,0,0,0-6.33,9.21,34.35,34.35,0,0,0-1.64,4.83,3,3,0,0,1-2.59,2.44c-2,.55-4,1.26-5.94,2a21.33,21.33,0,0,0-8.23,5.49c-.41.43-.87.82-1.46,1.37a7.3,7.3,0,0,1-.73-1.39,6.07,6.07,0,0,1,3.65-6.78c2-.79,4.19-1.34,6.29-2.15-2.46.26-4.93.43-7.37.83a1.87,1.87,0,0,1-2.11-.84c-.89-1.23-1-3.74.06-4.79a2.45,2.45,0,0,1,1.87-.49c2.27.37,4.51.89,6.77,1.35l2.44.51.3.13Zm6.09-4.66h.18v-.86h-.25Z"/><path class="cls-11" d="M1001.63,2135c-.45-2.17-.86-4.36-1.36-6.52-1.16-5-3.42-9.32-7.68-12.5a13.32,13.32,0,0,0-5.73-2.83,6.68,6.68,0,0,0-2.67.13,2.1,2.1,0,0,0-1.69,2.06c-.09,1.42-.43,1.69-1.83,2a4.63,4.63,0,0,1-5.3-1.94c-.25-.32-.46-.68-.69-1-1-1.45-1-1.44-2.66-.72a15.41,15.41,0,0,1-9.2,1.24,8.06,8.06,0,0,1-5.81-4.49c.19-.14.31-.29.38-.27a10.32,10.32,0,0,0,8.61-1.31,26.73,26.73,0,0,1,17.75-3.38,19.26,19.26,0,0,1,16.54,14.73A59.79,59.79,0,0,1,1001.63,2135Z"/><path class="cls-11" d="M1027.69,2140.13a30.23,30.23,0,0,1-.19-4.25,9,9,0,0,1,7.21-7.77,6.07,6.07,0,0,1,7.53,5.46,4.35,4.35,0,0,1-2,4.2,4.7,4.7,0,0,1-5,.22c.35-.48.61-.87.91-1.23.57-.69.9-1.39.24-2.2a2.26,2.26,0,0,0-2.67-.54,2.92,2.92,0,0,0-1.79,2.57,14.66,14.66,0,0,0,.21,3.43,11.76,11.76,0,0,0,.84,2.51c1.33,3.22,2.64,4.32,6.16,5a9.76,9.76,0,0,0,2.66-.33c1.91,2.26,1.09,5.18,1.4,8.16-3-.22-6,.54-8.77-1.45,1.35-1.36.37-2.65.07-4.07-.54-2.52-2.42-3.49-4.52-4.29a14.82,14.82,0,0,0-3.81-1.06,9.52,9.52,0,0,0-3.67.46,2.26,2.26,0,0,0-1.49,2.8,1.67,1.67,0,0,0,2.72,1c.46-.29.86-.66,1.28-1,2.32,2.09-.2,6.22-2.68,6.66-4.12.72-7.62-2.12-7.38-6.19a9,9,0,0,1,8.16-8,32.23,32.23,0,0,1,4.37.26l.51-.07Z"/><path class="cls-11" d="M1018.44,2115.05a1.85,1.85,0,0,1-.58.18c-4.19-.27-8.4-.51-12.43-1.74-8.11-2.49-12.64-8.06-13.83-16.06a23.79,23.79,0,0,1,2.73-15.39c2.72-4.89,2.69-4.91,2.29-10.17a8,8,0,0,1,4.94,6.65,14.91,14.91,0,0,1-1.25,7.56c-.25.56-.52,1.11-.89,1.9q1.23.84,2.46,1.71c2.13,1.49,2.75,3.46,1.87,5.7a1.69,1.69,0,0,1-1.65,1.27c-1.71.12-2.65.93-2.61,2.53a9.55,9.55,0,0,0,.9,3.9,18.63,18.63,0,0,0,10.37,9.33c1.87.73,3.87,1.15,5.81,1.7.63.18,1.27.34,1.91.51Z"/><path class="cls-11" d="M1032.79,2115.13c0-1.53,0-3.86,0-6.2a13.63,13.63,0,0,0-1.83-7,9,9,0,0,0-7.33-4.45,6.78,6.78,0,0,0-6.8,3.5l-.61,1a2.42,2.42,0,0,1-1.91-1.82,6.46,6.46,0,0,1,5.14-8.8,10.69,10.69,0,0,1,4.14.18,14.8,14.8,0,0,1,11.21,13.66A22.43,22.43,0,0,1,1032.79,2115.13Z"/><path class="cls-11" d="M1000.23,2145.28c-8.46,4.16-19.29,1.78-22.86-8.2a8.11,8.11,0,0,1-.13-5.58,6.8,6.8,0,0,1,8.82-4.05c1,.35,1.05.41,2,1.78a3.31,3.31,0,0,1-.61.45c-2.86,1.19-5,4.32-3.77,8.53a9,9,0,0,0,5.71,6.07,20,20,0,0,0,8.65,1.13Z"/><path class="cls-11" d="M921.54,2118.07a5.2,5.2,0,0,1,.51-.63,19.51,19.51,0,0,0,5.72-8.61c.66-2,1.55-2.55,3.6-2.33a35.61,35.61,0,0,1,22.2,10.76,2.11,2.11,0,0,1,.31.52s0,.12,0,.41c-1-.45-1.92-.85-2.82-1.29a30.4,30.4,0,0,0-11.78-3.34,25.83,25.83,0,0,0-15.95,4c-.49.32-1,.59-1.54.88Z"/><path class="cls-11" d="M1005.15,2037.61c-7.6,10.24-6.46,20.61-.76,31.23a6.26,6.26,0,0,1-1-.67,34.14,34.14,0,0,1-10.54-19.93,13.78,13.78,0,0,1-.1-1.82,2.53,2.53,0,0,1,1.85-2.66c.46-.17.91-.36,1.37-.51a17.51,17.51,0,0,0,7.36-4.56c.46-.48,1-.92,1.43-1.38Z"/><path class="cls-11" d="M1002.08,2115.17l-.25.18.23-.14Z"/><path class="cls-11" d="M157.74,2139.16l2.31-2.53c2.39-2.58,4.69-5.23,7.18-7.7a14.58,14.58,0,0,1,6.89-3.73,13.51,13.51,0,0,1,16.71,10.1,12.22,12.22,0,0,1-.87,8.92,8,8,0,0,1-9,4.12,15.94,15.94,0,0,1-1.89-.79c4.37-.41,7.19-2,7.83-6a7.07,7.07,0,0,0-2.52-6.63,9.55,9.55,0,0,0-1,.92c-1.58,1.87-2.18,2.05-4.21.76A6.75,6.75,0,0,0,173,2136a8.07,8.07,0,0,0-5.53,9.2,11.62,11.62,0,0,0,10.27,9.61,22.26,22.26,0,0,0,5.65-.1c6.3-.92,10.32-4.48,12.21-10.36a20.43,20.43,0,0,0,0-13c-2.54-7.6-8.52-10.82-16-10.53a23.86,23.86,0,0,0-10.2,2.88,15.87,15.87,0,0,0-6.06,5.24c-2,3-3.81,6.15-5.69,9.24a3.32,3.32,0,0,0-.25.71Z"/><path class="cls-11" d="M96.05,2049.34A7.46,7.46,0,0,0,88.2,2047c-3.4,1-4.91,3.38-5.07,6.8-1-.44-1-1.29-1.14-2.05a7.65,7.65,0,0,1,4.22-7.79,12.93,12.93,0,0,1,9-1,13.88,13.88,0,0,1,9.65,6.6c2.64,4.48,2.1,9-.42,13.37a18.9,18.9,0,0,1-3.51,4.28c-2.43,2.24-5.06,4.27-7.61,6.39a4,4,0,0,0-1.34,1.6,2.26,2.26,0,0,0,.84-.1c3-1.69,6.11-3.31,9.06-5.13,7.12-4.39,10.15-14.85,8.11-21.62a14.17,14.17,0,0,0-10-9.86,22.58,22.58,0,0,0-15,.39,14.87,14.87,0,0,0-9.47,16.8,11.57,11.57,0,0,0,6.69,9,10.2,10.2,0,0,0,7.76.56,7.51,7.51,0,0,0,4.28-11.06c-1.1-1.83-1-2.51.66-3.82C95.23,2050.05,95.58,2049.73,96.05,2049.34Z"/><path class="cls-11" d="M164.47,2122.41a12.68,12.68,0,0,0-1.75-1.61c-3.66-2.17-7.59-2.87-11.65-1.34a6.6,6.6,0,0,1-5.23-.08,13.31,13.31,0,0,0-8.22-.77c-2.53.59-3.63,2.14-3.39,4.89a21.63,21.63,0,0,1,2.32-.76,7.79,7.79,0,0,1,9.39,5.51,15.31,15.31,0,0,1-2.68,13.72,22.52,22.52,0,0,1-24,8.25,36.53,36.53,0,0,1-11.72-5.33c-2.23-1.53-4.41-3.13-6.76-4.47a33.22,33.22,0,0,0-5.21-2.06,2.22,2.22,0,0,0-1.63.27c.35.13.68.29,1,.39a19.94,19.94,0,0,1,8.2,4.77,64,64,0,0,0,5.73,5.08c8.55,6.14,18,8.39,28.31,5.15a26.89,26.89,0,0,0,15.66-12.56c1.92-3.37,3.37-7,5.16-10.45a61.16,61.16,0,0,1,3.76-6.32A14,14,0,0,1,164.47,2122.41Z"/><path class="cls-11" d="M92.59,2136.91a9.76,9.76,0,0,0-.43-2.68,50.29,50.29,0,0,0-3.13-5.95c-1.32-2.08-3-4-4.31-6-3.4-5.13-5.65-10.68-5.23-16.86.55-8,4.66-14,11.89-17.79a15.67,15.67,0,0,1,10.82-1.26c5.36,1.13,7.88,5.82,5.82,10.74-.1.23-.17.48-.26.74,2.45.42,4.2-.54,4.9-2.73a12.85,12.85,0,0,0-.73-8.75,5.56,5.56,0,0,1,0-4.7,12.16,12.16,0,0,0-1.19-11.14,11.53,11.53,0,0,0-1.38-1.61c-.33.08-.51.07-.58.15-2.5,2.91-5.84,4.56-9.34,6-3.33,1.41-6.69,2.81-9.86,4.52a27.84,27.84,0,0,0-14,17.54c-1.59,5.63-.63,11.17,1.16,16.62a25.37,25.37,0,0,0,5.56,9.48c1.46,1.56,2.95,3.09,4.45,4.61a18.58,18.58,0,0,1,5.09,8.31,5.88,5.88,0,0,0,.35.83Z"/><path class="cls-11" d="M111.8,2066.67c.34-.48.73-.93,1-1.44a19.27,19.27,0,0,0,2.68-9.92,29.92,29.92,0,0,0-7.94-20.9c-3-3.22-6.37-6.09-9.6-9.1-1.56-1.46-3.24-2.8-4.73-4.32a8.52,8.52,0,0,1-2.53-5.46c-.17-2.55,1.14-4.17,3.76-4.51a23.52,23.52,0,0,1,3.14,0h1.83a6.47,6.47,0,0,0-7.46-4.8c-3.29.62-3.28.62-4.93-2.22a16.29,16.29,0,0,0-6.05-6.09,6,6,0,0,0-4.27-1,3.75,3.75,0,0,0,.4,1c2.28,2.66,2.28,5.71,1.71,8.88a47.34,47.34,0,0,0-.77,4.82c-.4,6,1.71,11,6.69,14.58a102.2,102.2,0,0,0,9.71,5.62c2.6,1.45,5.26,2.82,7.86,4.28,10.58,5.92,12.78,16.53,10.52,25.61-.4,1.62-.9,3.22-1.35,4.83Z"/><path class="cls-11" d="M238.22,2153.64a3.68,3.68,0,0,0-.4-3.21,15.26,15.26,0,0,0-6.56-6.67c-3.17-1.76-3.46-1.17-2.56-5.08.74-3.22-1.52-6.35-5-7.07.06.76.17,1.46.16,2.15a14.83,14.83,0,0,1-.22,3.41,3.88,3.88,0,0,1-4.62,2.92,9.81,9.81,0,0,1-5.6-2.59c-1.45-1.37-2.82-2.83-4.15-4.32a81,81,0,0,0-10-9.88,32.67,32.67,0,0,0-21.75-7.26,21.19,21.19,0,0,0-9.62,2.57,11.63,11.63,0,0,0-1,.67c-.09.07-.13.22-.39.69,1.14-.32,2-.56,2.9-.82a27.93,27.93,0,0,1,14.71-.61,20.71,20.71,0,0,1,12,7.63c3.12,4,5.29,8.62,7.8,13a45.37,45.37,0,0,0,4.7,7.19c4.07,4.71,9.43,6.62,15.75,5.85,1.53-.19,3-.47,4.55-.76a10,10,0,0,1,8.35,1.7A6.26,6.26,0,0,0,238.22,2153.64Z"/><path class="cls-11" d="M101.44,2131.75l.3-.13,2.44-.51c2.26-.46,4.5-1,6.77-1.35a2.45,2.45,0,0,1,1.87.49c1,1.05,1,3.56.06,4.79a1.87,1.87,0,0,1-2.11.84c-2.44-.4-4.91-.57-7.37-.83,2.1.81,4.25,1.36,6.29,2.15a6.07,6.07,0,0,1,3.65,6.78,7.3,7.3,0,0,1-.73,1.39c-.59-.55-1-.94-1.46-1.37a21.33,21.33,0,0,0-8.23-5.49c-2-.73-3.93-1.44-5.94-2a3,3,0,0,1-2.59-2.44,34.35,34.35,0,0,0-1.64-4.83,21.91,21.91,0,0,0-6.33-9.21,15.2,15.2,0,0,1-1.13-1.22,3.86,3.86,0,0,1,.81-.54,6.5,6.5,0,0,1,7.61,3.41c.25.56.47,1.14.69,1.71s.55,1.45.82,2.17l.52-.11c-.23-1.57-.44-3.14-.68-4.71-.21-1.36,0-1.83,1.25-2.45,1.76-.86,3.36-.34,5,.52.32,3.78-1.18,7.18-2.15,11,2.19-3.55,2.66-5.08,3.66-11.77a36.57,36.57,0,0,1,4.07-1.12,42.69,42.69,0,0,1,4.81-.32,6.77,6.77,0,0,0,4.27-1.45l0,0c0,.24.18.55.08.71-1.16,1.81-1.15,3.82-1.27,5.85a36.49,36.49,0,0,1-.84,5.16c-.24,1.2-1,1.68-2.36,1.73a19,19,0,0,0-9.76,3Zm-5.69-5.62H95.5v.86h.18Z"/><path class="cls-11" d="M116.37,2135c.45-2.17.86-4.36,1.36-6.52,1.16-5,3.42-9.32,7.68-12.5a13.32,13.32,0,0,1,5.73-2.83,6.68,6.68,0,0,1,2.67.13,2.1,2.1,0,0,1,1.69,2.06c.09,1.42.43,1.69,1.83,2a4.63,4.63,0,0,0,5.3-1.94c.25-.32.46-.68.69-1,1-1.45,1-1.44,2.66-.72a15.41,15.41,0,0,0,9.2,1.24,8.06,8.06,0,0,0,5.81-4.49c-.19-.14-.31-.29-.38-.27a10.32,10.32,0,0,1-8.61-1.31,26.73,26.73,0,0,0-17.75-3.38,19.26,19.26,0,0,0-16.54,14.73A59.79,59.79,0,0,0,116.37,2135Z"/><path class="cls-11" d="M90.31,2140.13a30.23,30.23,0,0,0,.19-4.25,9,9,0,0,0-7.21-7.77,6.07,6.07,0,0,0-7.53,5.46,4.35,4.35,0,0,0,2,4.2,4.7,4.7,0,0,0,5,.22c-.35-.48-.61-.87-.91-1.23-.57-.69-.9-1.39-.24-2.2a2.26,2.26,0,0,1,2.67-.54,2.92,2.92,0,0,1,1.79,2.57,14.66,14.66,0,0,1-.21,3.43,11.76,11.76,0,0,1-.84,2.51c-1.33,3.22-2.64,4.32-6.16,5a9.76,9.76,0,0,1-2.66-.33c-1.91,2.26-1.09,5.18-1.4,8.16,3-.22,6,.54,8.77-1.45-1.35-1.36-.37-2.65-.07-4.07.54-2.52,2.42-3.49,4.52-4.29a14.82,14.82,0,0,1,3.81-1.06,9.52,9.52,0,0,1,3.67.46,2.26,2.26,0,0,1,1.49,2.8,1.67,1.67,0,0,1-2.72,1c-.46-.29-.86-.66-1.28-1-2.32,2.09.2,6.22,2.68,6.66,4.12.72,7.62-2.12,7.38-6.19a9,9,0,0,0-8.16-8,32.23,32.23,0,0,0-4.37.26l-.51-.07Z"/><path class="cls-11" d="M99.56,2115.05a1.85,1.85,0,0,0,.58.18c4.19-.27,8.4-.51,12.43-1.74,8.11-2.49,12.64-8.06,13.83-16.06a23.79,23.79,0,0,0-2.73-15.39c-2.72-4.89-2.69-4.91-2.29-10.17a8,8,0,0,0-4.94,6.65,14.91,14.91,0,0,0,1.25,7.56c.25.56.52,1.11.89,1.9q-1.23.84-2.46,1.71c-2.13,1.49-2.75,3.46-1.87,5.7a1.69,1.69,0,0,0,1.65,1.27c1.71.12,2.65.93,2.61,2.53a9.55,9.55,0,0,1-.9,3.9,18.63,18.63,0,0,1-10.37,9.33c-1.87.73-3.87,1.15-5.81,1.7-.63.18-1.27.34-1.91.51Z"/><path class="cls-11" d="M85.21,2115.13c0-1.53,0-3.86,0-6.2a13.63,13.63,0,0,1,1.83-7,9,9,0,0,1,7.33-4.45,6.78,6.78,0,0,1,6.8,3.5l.61,1a2.42,2.42,0,0,0,1.91-1.82,6.46,6.46,0,0,0-5.14-8.8,10.69,10.69,0,0,0-4.14.18,14.8,14.8,0,0,0-11.21,13.66A22.43,22.43,0,0,0,85.21,2115.13Z"/><path class="cls-11" d="M117.77,2145.28c8.46,4.16,19.29,1.78,22.86-8.2a8.11,8.11,0,0,0,.13-5.58,6.8,6.8,0,0,0-8.82-4.05c-1,.35-1.05.41-2,1.78a3.31,3.31,0,0,0,.61.45c2.86,1.19,5,4.32,3.77,8.53a9,9,0,0,1-5.71,6.07,20,20,0,0,1-8.65,1.13Z"/><path class="cls-11" d="M196.46,2118.07a5.2,5.2,0,0,0-.51-.63,19.51,19.51,0,0,1-5.72-8.61c-.66-2-1.55-2.55-3.6-2.33a35.61,35.61,0,0,0-22.2,10.76,2.11,2.11,0,0,0-.31.52s0,.12,0,.41c1-.45,1.92-.85,2.82-1.29a30.4,30.4,0,0,1,11.78-3.34,25.83,25.83,0,0,1,16,4c.49.32,1,.59,1.54.88Z"/><path class="cls-11" d="M112.85,2037.61c7.6,10.24,6.46,20.61.76,31.23a6.26,6.26,0,0,0,1-.67,34.14,34.14,0,0,0,10.54-19.93,13.78,13.78,0,0,0,.1-1.82,2.53,2.53,0,0,0-1.85-2.66c-.46-.17-.91-.36-1.37-.51a17.51,17.51,0,0,1-7.36-4.56c-.46-.48-1-.92-1.43-1.38Z"/><path class="cls-11" d="M115.92,2115.17l.25.18-.23-.14Z"/><path class="cls-11" d="M846.94,472.8c.33,1.06.68,2.11,1,3.18.52,1.75,1,3.5,1.58,5.38a3.78,3.78,0,0,1-1.53.09c-1.88-.6-3.61-1-5.67-.24-1.47.57-2.89-.38-3.57-2-.57-1.33-.35-2.35,1.26-3.06.19.45.46.77.4,1-.31,1.32-.1,2.34,1.47,2.31A2,2,0,0,0,844,477a4.87,4.87,0,0,0-1.86-3c-4-2.46-8.59-2.25-13.07-2.12-.59,0-1.14.88-1.72,1.32-2.29,1.71-4.35,2-6.51.24-1.66-1.36-3.37-1.37-5.23-1.37H368.83q-26.2,0-52.43,0a7.68,7.68,0,0,0-5.2,1.46c-2.17,1.7-4.25,1.48-6.46-.46a4.43,4.43,0,0,0-3.67-1.3c-2.35.26-4.72.37-7.07.69a10.31,10.31,0,0,0-3.2,1c-3.05,1.54-3.35,3.54-1.06,6.5,2-.39,2.59-1.54,1.73-3.55,1.9-.26,2.35.67,2.16,2.11s-2.17,3.22-3.42,2.72c-2.28-.9-4.3-.26-6.42.25a3.47,3.47,0,0,1-1.17-.15c1-3.15,2-6.24,3.06-9.62a11.94,11.94,0,0,0-2.42.69,8.24,8.24,0,0,1-7.9-.08c-2-1-4-1.93-6.42-3.07,3-1.31,5.65-2.42,8.27-3.68,3-1.44,5.42.95,8.31,1.28-1-3.32-1.88-6.3-2.83-9.51.42-.06,1.08-.37,1.54-.18a8,8,0,0,0,5.68.27,2.84,2.84,0,0,1,3.55,2c.45,1.23.51,2.5-1.54,3-.07-.41-.29-.85-.18-1.16.44-1.23,0-2.16-1.18-2.1a3,3,0,0,0-2.22,1.47,2.89,2.89,0,0,0,1.43,3.84,18.39,18.39,0,0,0,5.22,1.86,58,58,0,0,0,6.34.46,4.23,4.23,0,0,0,3.35-1.19c2.28-2,4.63-2.21,6.75-.35,1.56,1.37,3.14,1.28,4.85,1.28H796.43c6.61,0,13.23,0,19.84,0a6.32,6.32,0,0,0,4.45-1.36c2.18-1.78,4.44-1.49,6.83.3.58.44,1.2,1.2,1.79,1.19,4.1-.06,8.32.34,12.1-1.68a6.32,6.32,0,0,0,2.53-3c.27-.63-.38-1.87-1-2.55a2.06,2.06,0,0,0-2-.19c-.45.52-.38,1.49-.55,2.26a6.13,6.13,0,0,1-.24.68c-1.38.2-1.83-.71-1.76-1.77.1-1.46.89-3,2.38-2.91a27.21,27.21,0,0,0,8.94-.59c-.74,2-1.32,3.49-1.8,5s-.85,3-1.34,4.8a7.44,7.44,0,0,0,2.21-.49c2.79-1.62,5.47-1.23,8.2.15,1.88,1,3.83,1.8,6,2.81-5,2.51-9.59,6-15.5,2.74l-1.25.11Z"/><path class="cls-11" d="M733.84,444.29a35.66,35.66,0,0,1,1.52,15.85c-3.18-.31-6.18-2.92-7.57-7.54-1.09-3.63-1.42-7.5-2.14-11.56-1,3-1.71,5.95-2.9,8.68s-2.91,5.42-4.55,8.4a5.12,5.12,0,0,1-2-5.12,80.92,80.92,0,0,1,2.58-9.29c.64-1.95,1.63-3.79,2.53-5.84-2.64.08-2.64.08-7.82,8.18-1.07-4.11-.44-7.57,2-10.63a38.2,38.2,0,0,1,4.2-4.24,2.57,2.57,0,0,0,.47-3.66A9.28,9.28,0,0,0,719,426c-7.25-7.33-15.79-11.22-26.28-9.65a51.06,51.06,0,0,0-6.05,1.67c-.26-1.89,1.38-2,2.26-2.36,7.06-2.84,14.22-2.92,21,.55a53.16,53.16,0,0,1,10.76,7.31c3.83,3.36,7.12,7.33,10.61,11.06,3.23,3.46,6.31,7.09,9.67,10.41,6.86,6.76,15,11.22,24.67,12.15a27.13,27.13,0,0,0,7.79-.37c8.09-1.6,13.55-10.68,11.4-18.64-1.59-5.88-8.18-9.6-13.77-7.74-1.55.52-3.07,1.12-3.51,3l-.35.58.93.2a29.36,29.36,0,0,1,2.94-.44,4.44,4.44,0,0,1,4.64,5.92,5.57,5.57,0,0,1-4.76,4.2,6.85,6.85,0,0,1-6.86-3.59c-3.44-6.1.79-14.19,7.78-14.9,8.52-.86,15.82,4.72,17.54,13.39,2.36,11.89-5.18,21.79-17.3,22.53-10,.62-19-2.43-27-8.23-3.81-2.77-7.09-6.25-10.6-9.4l-.88-1-.43.23ZM721,436.58c-.09.09-.25.19-.24.25a1.92,1.92,0,0,0,.24.5c.08-.08.24-.18.23-.24A2.58,2.58,0,0,0,721,436.58Z"/><path class="cls-11" d="M442.29,416.94c-10.65-2.8-19.63.55-27.62,7.52a17.32,17.32,0,0,0-2.46,2.8,2.62,2.62,0,0,0,.39,4,37.14,37.14,0,0,1,3.49,3.38c2.9,3.33,3.66,6.69,2.54,11.6-1.19-2.08-2.07-3.89-3.2-5.53a10.41,10.41,0,0,0-4-3.9l-.71.5c.74,1.78,1.57,3.52,2.2,5.34a83.47,83.47,0,0,1,3,9.56c.55,2.57-.09,3.64-1.93,5.76-4.19-6.46-7.44-13.18-8.08-21,0,2.84.1,5.69,0,8.53-.18,4.6-1.38,8.9-4.61,12.34a38.82,38.82,0,0,1-4.15,3.29,30.27,30.27,0,0,1,1.24-16.58c-2.26-.23-2.83,1.29-3.71,2.17a48.91,48.91,0,0,1-22.94,13.48,32.12,32.12,0,0,1-15.91.41c-14.89-3.71-17-21.73-8.56-30.55a15.06,15.06,0,0,1,14-4.51c6.52,1.09,10.09,9.29,6.65,15a6.65,6.65,0,0,1-8.75,2.71,5.68,5.68,0,0,1-2.59-6.76q1.2-3.24,5.55-2.53c.83.13,1.65.28,2.69.47-.23-2.37-1.71-3.19-3.35-3.82-5.36-2-12,1.23-13.9,6.89-2.72,7.85,2.56,17.3,10.74,19.36,4.64,1.16,9.17.55,13.69-.54,7.64-1.83,14-6,19.4-11.47,4.21-4.26,8-9,12.17-13.22a136.26,136.26,0,0,1,13.14-12.19,25.54,25.54,0,0,1,20.77-5.3,43.23,43.23,0,0,1,5.65,1.83Zm-43.12,24.79c-.44.82-1.81,1.23-.7,2.66l.63-2.61.18,0Zm12-5.51c-.07-.08-.16-.24-.21-.23a2.93,2.93,0,0,0-.44.21c.07.08.16.24.21.23A2.53,2.53,0,0,0,411.17,436.22Z"/><path class="cls-11" d="M571.26,451.17c5.88-12.55,11.92-24.65,26.64-29.57a19.52,19.52,0,0,1-.16,2.59c-1.33,6.58-3.69,12.8-8.32,17.73-6.06,6.44-12.5,12.53-18.8,18.74a15.25,15.25,0,0,1-2.37,1.54,5.35,5.35,0,0,1-.47-1.5c.51-11.83.55-23.71,3-35.37a59,59,0,0,1,5.69-16.17c3.24-6,8-9.63,15-10.28,3.14-.29,6.2-1.49,9.67-2.37a8.37,8.37,0,0,1-.58,6,30.66,30.66,0,0,1-4.43,7.23c-1.82,2.19-4.18,3.92-6.28,5.87a58.78,58.78,0,0,0-18,31.66C571.54,448.57,571.43,449.88,571.26,451.17Z"/><path class="cls-11" d="M531.19,395.93c3.72,2.38,7.69,2.74,11.62,3.3a15.81,15.81,0,0,1,11.28,7.28A49.3,49.3,0,0,1,561.7,427c1.09,7.51,1.58,15.11,2.26,22.68.26,3,.31,6,.43,9,0,1.06,0,2.11,0,4.05-1.69-1.28-2.73-1.9-3.58-2.72-5.37-5.2-10.79-10.37-16-15.7a38.68,38.68,0,0,1-10.33-20c-.17-.82-.18-1.67-.29-2.76,15,4.93,21,17.33,26.93,30.14-.21-1.26-.38-2.52-.62-3.78A58.47,58.47,0,0,0,542,415.31c-2.29-2.12-4.67-4.15-6.8-6.42A14.82,14.82,0,0,1,531.19,395.93Z"/><path class="cls-11" d="M619.73,433.07c-3.94-.85-6.88,1.58-6.65,5.29a8,8,0,0,0,2.84,5.5,14.55,14.55,0,0,0,24.1-6.44A21.85,21.85,0,0,0,636,417c-3.44-4.42-8.59-5.83-13.88-6.49a32.69,32.69,0,0,0-17.21,2.41c-2.87,1.25-5.72,2.54-9,4,.37-.87.46-1.65.87-1.92,9.58-6.3,19.89-9.72,31.48-7.49,14.47,2.78,23.28,18.84,17.76,32.21-4,9.74-16.46,15.87-26.62,13.12a16.42,16.42,0,0,1-12.43-16.24,10.83,10.83,0,0,1,3.39-7.66c4.65-4.51,13.32-4.87,18.25-.76a7.12,7.12,0,0,1,2,8.46c-1.14,3.07-3.56,4.77-6.52,4.59-4.14-.25-5.87-2.83-4.56-6.79A9.21,9.21,0,0,0,619.73,433.07Z"/><path class="cls-11" d="M536.92,417.72c-1.27-.67-2.54-1.3-3.77-2-6.55-3.64-13.43-6.05-21.06-5.4a37.07,37.07,0,0,0-6.63,1.05c-12,3.31-18.1,18.49-11.92,29.36,4.87,8.55,16.81,9.63,23.64,2.11,2.24-2.47,2.53-5.52.92-7.92-1.3-1.93-3-2.94-5.58-1.95a7,7,0,0,0,.12,1.41c1,3.14.77,4.28-1.06,5.63a6.67,6.67,0,0,1-7.07.34,7.82,7.82,0,0,1-.91-12.26c4.08-3.53,11.54-3.8,16.51-.58,4.48,2.91,6.24,8.23,4.58,13.87-2.08,7.07-8.47,11.8-16.3,12.05-11.48.38-21.63-7.53-23.6-18.39-2.17-12,6.3-24.77,18.48-27.38,12.41-2.66,23.41,1,33.37,8.4a2.62,2.62,0,0,1,.55.92C537.22,417.05,537.12,417.18,536.92,417.72Z"/><path class="cls-11" d="M435,431.73c1.44.92,2.74,2.17,4.68,1.24a5.54,5.54,0,0,0,3.37-5.68,5.44,5.44,0,0,0-5.35-4.83,9.89,9.89,0,0,0-4.24,1.19,12.05,12.05,0,0,0-6.46,10c-.65,7.69,2.05,14,8.74,18.19A27.49,27.49,0,0,0,471,447.36c2.36-2.51,4.39-5.33,7-8.53a7.54,7.54,0,0,1,0,2.12c-9.09,20.78-30.8,25.24-46.26,15.33-9.43-6-13.32-20.1-8.42-30.23A14.93,14.93,0,0,1,442,418.76a11.58,11.58,0,0,1,5.84,15.67A7.7,7.7,0,0,1,437,437.52C434.71,436.15,434.2,434.77,435,431.73Z"/><path class="cls-11" d="M654.87,439.87c.62.69,1.27,1.37,1.87,2.08,1.68,2,3.21,4.15,5,6a27.82,27.82,0,0,0,35.62,3.2,18.64,18.64,0,0,0,7.48-19.06,12.1,12.1,0,0,0-8.6-9.49,5.46,5.46,0,0,0-6.76,3.24,5.21,5.21,0,0,0,2,6.57,3.7,3.7,0,0,0,5.31-.58c1.32,2.13,1.1,3.51-.71,5.07a7.68,7.68,0,0,1-11.59-2.19,11.48,11.48,0,0,1,6-16.09,14.92,14.92,0,0,1,18.71,8.07c4.68,10.82.22,24.44-9.94,30.33-15.21,8.81-35.87,4.28-44.83-15.62a4.63,4.63,0,0,1-.17-1Z"/><path class="cls-11" d="M663.29,428.72c1.45,2.75,3,5.46,4.33,8.27a23.28,23.28,0,0,1,2.12,11.55c-4.06-2.36-7.73-4.67-9.91-8.6-1.63-2.93-3-6-4.34-9.08-1.07-2.39-1.91-4.88-3-7.26-5.71-12.57-15.78-19.05-31.62-18.68-3.81.08-7.6,1.25-11.39,2-1.14.22-2.26.59-3.39.89l-.31-1c1.43-.54,2.83-1.22,4.3-1.62,10.55-2.87,21-2.2,31.31,1.15a68.83,68.83,0,0,1,16.38,8.09c1.88,1.22,3.72,2.51,5.55,3.81,4.56,3.27,9.14,6.48,15.62,5.81-1.26,3.39-3.52,4.87-6.37,4.88s-5.63-.71-8.45-1.12l-1.69-1.16-.31.44C662.52,427.63,662.91,428.17,663.29,428.72Zm-4.75-7.23-.21-.05h.29l.72.76c.14.59.27,1.19.41,1.79.63.74,1.26,1.49,1.9,2.23l.58-.69-2.55-1.5c-.13-.58-.27-1.17-.42-1.75C659,422,658.79,421.74,658.54,421.49Z"/><path class="cls-11" d="M467.76,427.94a58.27,58.27,0,0,1-7.73,1c-3,0-5.44-1.39-6.89-5,6.89.89,11.64-2.83,16.46-6.29,8.17-5.87,16.81-10.77,26.76-12.91,8.53-1.83,17.08-2.06,25.55.38,2.09.6,4.09,1.54,6.13,2.33l-.28.86c-1.45-.41-2.91-.78-4.34-1.24-8.28-2.66-16.58-3.16-25-.58-7,2.15-12.55,6.14-16.18,12.48-2,3.45-3.46,7.16-5.14,10.77-1.52,3.28-2.78,6.69-4.54,9.82-2.24,4-5.52,6.56-10.23,8.62a25.2,25.2,0,0,1,2.35-11.55c1.25-2.71,2.74-5.3,4.13-7.95.16-.21.33-.42.49-.64.6-.82,1.19-1.65,1.78-2.47l-.64-.42-1.74,2.2Zm8.62-9.31.09-.08-.09.06-.09.09Zm-1.44,2.29-.7.86-2.37,2.05-.5.45.45.14,0-.64c.8-.69,1.6-1.38,2.39-2.08l.8-.84,0-.09Z"/><path class="cls-11" d="M566.22,366.22a17,17,0,0,1-1.33-2,109.65,109.65,0,0,1-7-23.57,13.11,13.11,0,0,1,.51-6.59c2.16-5.53,4.78-10.86,7.36-16.58a7.65,7.65,0,0,1,1.35,1.46c1.49,3.13,2.79,6.37,4.4,9.44,2.93,5.56,3.78,11.22,1.76,17.29-1.72,5.2-3.18,10.48-4.85,15.69A46.29,46.29,0,0,1,566.22,366.22Z"/><path class="cls-11" d="M557.38,386.43l-.94-3.74a6.2,6.2,0,0,1,2,.17c1.46.75,2.63.46,4.18-.07a10.19,10.19,0,0,1,6.12-.28c2,.66,3.67,1.1,5.6.19.27-.13.7.07,1.3.15-.18,1-.34,1.9-.5,2.81l.05,0c-1.62,1.67-3.18,3.41-4.88,5s-1.74,3.5-1.81,5.5c-.25,7.73-.47,15.46-.71,23.19a13.57,13.57,0,0,1-2,7.51,26.17,26.17,0,0,1-1.15-4.1c-.29-3.47-.48-7-.62-10.44-.24-5.86-.43-11.71-.61-17.57A5.71,5.71,0,0,0,561,390a37.5,37.5,0,0,1-3.69-3.56Z"/><path class="cls-11" d="M562.79,375c-1.78-.62-2.81-.9-3.78-1.33-5.39-2.39-10.67-5.06-16.17-7.17-6.85-2.63-10.94-7.41-12.69-14.64,1.73-.56,3.37.05,5,.51a33.54,33.54,0,0,1,13.33,7.23c4.23,3.83,8.16,8,12.17,12.06A24.08,24.08,0,0,1,562.79,375Z"/><path class="cls-11" d="M570.36,373.29a22.24,22.24,0,0,1,2.29-3.3c3.06-3.08,6.17-6.13,9.4-9,5-4.49,10.59-7.84,17.26-9.15a14.38,14.38,0,0,1,1.85-.23,3.1,3.1,0,0,1,.93.29c-1.82,5.66-4.17,10.78-10.15,13.32-7,3-13.88,6.06-20.81,9.11Z"/><path class="cls-11" d="M562.26,369.79c-5.87-5.33-11.62-10.61-15.4-17.6-2-3.67-1-7.5-.49-11.43,3,.1,5.21,1.63,7.3,3.38a17.75,17.75,0,0,1,5.21,7.63A62.57,62.57,0,0,1,562.26,369.79Z"/><path class="cls-11" d="M585.48,340.73c2.57,7,.15,12.65-4.32,17.66-3.63,4.05-7.37,8-11.41,11.79A63.6,63.6,0,0,1,573,352.8a26,26,0,0,1,3-5.93C578.33,343.48,581.2,341.75,585.48,340.73Z"/><path class="cls-11" d="M558,375.26c-6.86-.85-13.46.62-20.08,1.83-1.35.25-2.72.34-4.09.46-5.41.51-9.3-1.92-12.23-6.28C530.52,365.85,549.33,369,558,375.26Z"/><path class="cls-11" d="M573.62,375.31c8.15-6.78,27.57-8.92,37-4.19-2.92,4.64-7,7-12.48,6.41-2.84-.31-5.68-.79-8.49-1.3a46.85,46.85,0,0,0-14.51-.83A10.21,10.21,0,0,1,573.62,375.31Z"/><path class="cls-11" d="M395.31,434.54c-4.36,5.7-8.72,11.34-15.4,14.32a17.54,17.54,0,0,1-5.7,1.53c-3.17.25-6.36.07-10.22.07a34.31,34.31,0,0,1,2.24-3.24,22.92,22.92,0,0,1,11.4-6.71c3.55-1,7.17-1.7,10.66-2.83A66.56,66.56,0,0,0,395.31,434.54Z"/><path class="cls-11" d="M768.25,450.51c-3.71,0-6.65.08-9.59,0A17.65,17.65,0,0,1,747.41,446a126.12,126.12,0,0,1-11.56-11.77c6,3.82,12.91,4.43,19.36,6.47a23.3,23.3,0,0,1,10.48,6.27A42.55,42.55,0,0,1,768.25,450.51Z"/><path class="cls-11" d="M574.43,377.56c10.1-3.51,26.44,4.87,29.7,14.93-4.12-1.76-8.92,1.46-12.09-3.27l-5.08,3.1c1.91-4.7,1.58-8.27-1.49-11.32C582.65,378.19,579,377.89,574.43,377.56Z"/><path class="cls-11" d="M549.09,380.36c-.5,0-1.15-.28-1.47-.05a8.25,8.25,0,0,0-3.36,9.15c.13.58.28,1.15.62,2.51l-4.67-2.61c-1.81,2.45-4.36,2.8-7.26,2.49a25.43,25.43,0,0,0-4.79.34c2.79-9.47,19-18,28.91-14.81-1.89.29-3.2.39-4.46.71-1.05.27-2.58-.15-2.86,1.58l.07-.05c-.81-.26-1.31-.22-.8.82Z"/><path class="cls-11" d="M557.32,386.39a5,5,0,0,0-.48,1.78c.43,3.38-3.43,5.36-6.53,3.53a7,7,0,0,1-2.56-8.79c.38-.88.89-1.7,1.34-2.55l-.07.08.8-.82-.07.05H553c-3,2.05-5.18,4.32-3.91,8a3.31,3.31,0,0,0,4.23,2.33c0-.31.13-.72,0-.9-.82-1-1.32-2.09-.12-2.87.61-.39,1.76,0,2.67.09.5,0,1,.08,1.51.13Z"/><path class="cls-11" d="M575.18,385.66l1.49.32c.89.18,2,.09,2.61.6,1,.86.1,1.78-.5,2.58-.11.15,0,.45,0,.68,2.84.08,4-.51,4.48-2.66.9-3.72-1.33-5.76-4.58-7.42,3.9.11,5.92,1.88,6.31,5.19s-1.58,6.61-4.47,7.33a4,4,0,0,1-5.11-4.52c.07-.7,1.22-1.53-.16-2.14Z"/><path class="cls-11" d="M571.36,378.17l3-1.1.29.84-3,1.06Z"/><path class="cls-11" d="M443.13,415.89l1.09,1.4-1.93-.35Z"/><path class="cls-11" d="M685.87,418.5l-.49-.27c.09-.08.19-.25.25-.23a2.27,2.27,0,0,1,.5.23Z"/><path class="cls-11" d="M571.13,374.3l-1,.17.18-1.18Z"/><path class="cls-11" d="M559.21,375.67l-.23-.11.24-.29.22.2Z"/><path class="cls-11" d="M846.94,1943.57c.33-1.06.68-2.11,1-3.18.52-1.75,1-3.5,1.58-5.38a3.78,3.78,0,0,0-1.53-.09c-1.88.6-3.61,1-5.67.24-1.47-.57-2.89.39-3.57,2-.57,1.33-.35,2.35,1.26,3.06.19-.45.46-.77.4-1-.31-1.31-.1-2.33,1.47-2.31a2,2,0,0,1,2.16,2.45,4.87,4.87,0,0,1-1.86,3c-4,2.46-8.59,2.25-13.07,2.12-.59,0-1.14-.88-1.72-1.32-2.29-1.7-4.35-2-6.51-.24-1.66,1.36-3.37,1.37-5.23,1.37H368.83q-26.2,0-52.43,0a7.68,7.68,0,0,1-5.2-1.46c-2.17-1.7-4.25-1.48-6.46.46a4.43,4.43,0,0,1-3.67,1.3c-2.35-.25-4.72-.37-7.07-.69a10.31,10.31,0,0,1-3.2-1c-3.05-1.54-3.35-3.54-1.06-6.5,2,.4,2.59,1.54,1.73,3.56,1.9.25,2.35-.68,2.16-2.12s-2.17-3.22-3.42-2.72c-2.28.9-4.3.26-6.42-.25a3.75,3.75,0,0,0-1.17.15c1,3.15,2,6.24,3.06,9.62a11.94,11.94,0,0,1-2.42-.69,8.26,8.26,0,0,0-7.9.08c-2,1-4,1.93-6.42,3.07,3,1.32,5.65,2.42,8.27,3.68,3,1.44,5.42-1,8.31-1.28-1,3.32-1.88,6.3-2.83,9.51.42.06,1.08.37,1.54.18a8,8,0,0,1,5.68-.27,2.84,2.84,0,0,0,3.55-2c.45-1.24.51-2.51-1.54-3-.07.42-.29.85-.18,1.16.44,1.23,0,2.16-1.18,2.1a3,3,0,0,1-2.22-1.47,2.89,2.89,0,0,1,1.43-3.84A18.71,18.71,0,0,1,295,1950a60.63,60.63,0,0,1,6.34-.46,4.23,4.23,0,0,1,3.35,1.19c2.28,2,4.63,2.21,6.75.35,1.56-1.37,3.14-1.28,4.85-1.28H796.43c6.61,0,13.23,0,19.84,0a6.32,6.32,0,0,1,4.45,1.36c2.18,1.78,4.44,1.49,6.83-.3.58-.44,1.2-1.2,1.79-1.19,4.1.06,8.32-.34,12.1,1.68a6.32,6.32,0,0,1,2.53,3c.27.63-.38,1.87-1,2.55a2,2,0,0,1-2,.19c-.45-.52-.38-1.49-.55-2.26a6.13,6.13,0,0,0-.24-.68c-1.38-.2-1.83.71-1.76,1.77.1,1.46.89,3,2.38,2.91a27.21,27.21,0,0,1,8.94.59c-.74-2-1.32-3.49-1.8-5s-.85-3-1.34-4.8a7.44,7.44,0,0,1,2.21.49c2.79,1.62,5.47,1.24,8.2-.15,1.88-1,3.83-1.8,6-2.81-5-2.5-9.59-6-15.5-2.74l-1.25-.11Z"/><path class="cls-11" d="M733.24,1973.52l.43.23c.29-.34.58-.68.88-1,3.51-3.16,6.79-6.64,10.6-9.4,8-5.81,17-8.85,27-8.24,12.12.74,19.66,10.64,17.3,22.53-1.72,8.67-9,14.25-17.54,13.39-7-.71-11.22-8.8-7.78-14.9a6.83,6.83,0,0,1,6.86-3.58,5.54,5.54,0,0,1,4.76,4.19,4.44,4.44,0,0,1-4.64,5.93,29.4,29.4,0,0,1-2.94-.45l-.93.2.35.58c.44,1.86,2,2.46,3.51,3,5.59,1.86,12.18-1.86,13.77-7.74,2.15-8-3.31-17-11.4-18.64a27.13,27.13,0,0,0-7.79-.37c-9.71.94-17.81,5.39-24.67,12.15-3.36,3.32-6.44,7-9.67,10.41-3.49,3.73-6.78,7.7-10.61,11.06a53.16,53.16,0,0,1-10.76,7.31c-6.79,3.48-14,3.39-21,.55-.88-.35-2.52-.47-2.26-2.36a51.06,51.06,0,0,0,6.05,1.67c10.49,1.57,19-2.31,26.28-9.65a9.28,9.28,0,0,0,1.1-1.51,2.57,2.57,0,0,0-.47-3.66,38.2,38.2,0,0,1-4.2-4.24c-2.4-3.06-3-6.52-2-10.63,5.18,8.1,5.18,8.1,7.82,8.18-.9-2-1.89-3.89-2.53-5.84a80.92,80.92,0,0,1-2.58-9.29,5.12,5.12,0,0,1,2-5.12c1.64,3,3.32,5.59,4.55,8.41s1.92,5.66,2.9,8.67c.72-4.06,1.05-7.92,2.14-11.56,1.39-4.62,4.39-7.23,7.57-7.54a35.65,35.65,0,0,1-1.52,15.85Zm-12,5.76c0-.06-.15-.16-.23-.24a1.92,1.92,0,0,0-.24.5c0,.06.15.16.24.25A2.58,2.58,0,0,0,721.2,1979.28Z"/><path class="cls-11" d="M443.13,2000.48a43.23,43.23,0,0,1-5.65,1.83,25.5,25.5,0,0,1-20.77-5.3,135,135,0,0,1-13.14-12.19c-4.2-4.26-8-9-12.17-13.21-5.43-5.5-11.76-9.65-19.4-11.48-4.52-1.08-9.05-1.7-13.69-.53-8.18,2.05-13.46,11.5-10.74,19.35,1.95,5.67,8.54,8.94,13.9,6.89,1.64-.63,3.12-1.45,3.35-3.81-1,.18-1.86.33-2.69.46q-4.35.71-5.55-2.52a5.69,5.69,0,0,1,2.59-6.77,6.65,6.65,0,0,1,8.75,2.71c3.44,5.67-.13,13.88-6.65,15a15.06,15.06,0,0,1-14-4.51c-8.48-8.82-6.33-26.84,8.56-30.55a32.12,32.12,0,0,1,15.91.41,48.91,48.91,0,0,1,22.94,13.48c.88.88,1.45,2.4,3.71,2.17a30.27,30.27,0,0,1-1.24-16.58,38.82,38.82,0,0,1,4.15,3.29c3.23,3.44,4.43,7.74,4.61,12.34.12,2.84,0,5.69,0,8.53.64-7.83,3.89-14.55,8.08-21,1.84,2.12,2.48,3.19,1.93,5.76a83.63,83.63,0,0,1-3,9.57c-.63,1.81-1.46,3.55-2.2,5.33l.71.5a10.41,10.41,0,0,0,4-3.9c1.13-1.64,2-3.45,3.2-5.53,1.12,4.91.36,8.27-2.54,11.61a38.33,38.33,0,0,1-3.49,3.37,2.63,2.63,0,0,0-.39,4,17.32,17.32,0,0,0,2.46,2.8c8,7,17,10.32,27.62,7.52Zm-43.85-25.85-.18,0-.63-2.61c-1.11,1.43.26,1.84.7,2.66Zm11.45,5.31c-.05,0-.14.15-.21.23a2.93,2.93,0,0,0,.44.21c.05,0,.14-.15.21-.23A2.53,2.53,0,0,0,410.73,1979.94Z"/><path class="cls-11" d="M571.26,1965.2c5.88,12.55,11.92,24.65,26.64,29.58a19.57,19.57,0,0,0-.16-2.6c-1.33-6.58-3.69-12.8-8.32-17.72-6.06-6.45-12.5-12.54-18.8-18.75a15.25,15.25,0,0,0-2.37-1.54,5.35,5.35,0,0,0-.47,1.5c.51,11.83.55,23.71,3,35.38a58.91,58.91,0,0,0,5.69,16.16c3.24,6,8,9.63,15,10.28,3.14.29,6.2,1.49,9.67,2.37a8.37,8.37,0,0,0-.58-6,30.66,30.66,0,0,0-4.43-7.23c-1.82-2.19-4.18-3.92-6.28-5.87a58.74,58.74,0,0,1-18-31.66C571.54,1967.8,571.43,1966.49,571.26,1965.2Z"/><path class="cls-11" d="M531.19,2020.44c3.72-2.38,7.69-2.73,11.62-3.29a15.87,15.87,0,0,0,11.28-7.28,49.34,49.34,0,0,0,7.61-20.54c1.09-7.51,1.58-15.11,2.26-22.68.26-3,.31-6,.43-9,0-1.06,0-2.11,0-4-1.69,1.28-2.73,1.9-3.58,2.72-5.37,5.2-10.79,10.37-16,15.7a38.68,38.68,0,0,0-10.33,20c-.17.82-.18,1.67-.29,2.76,15-4.93,21-17.33,26.93-30.14-.21,1.26-.38,2.53-.62,3.78A58.47,58.47,0,0,1,542,2001.06c-2.29,2.12-4.67,4.15-6.8,6.42A14.82,14.82,0,0,0,531.19,2020.44Z"/><path class="cls-11" d="M619.73,1983.3c-3.94.85-6.88-1.58-6.65-5.28a8,8,0,0,1,2.84-5.51A14.55,14.55,0,0,1,640,1979a21.83,21.83,0,0,1-4,20.46c-3.44,4.42-8.59,5.83-13.88,6.49a32.69,32.69,0,0,1-17.21-2.41c-2.87-1.25-5.72-2.54-9-4,.37.87.46,1.65.87,1.92,9.58,6.3,19.89,9.72,31.48,7.49,14.47-2.78,23.28-18.83,17.76-32.21-4-9.74-16.46-15.87-26.62-13.12a16.42,16.42,0,0,0-12.43,16.24,10.83,10.83,0,0,0,3.39,7.66c4.65,4.51,13.32,4.87,18.25.77a7.14,7.14,0,0,0,2-8.47c-1.14-3.07-3.56-4.77-6.52-4.59-4.14.25-5.87,2.83-4.56,6.79A9.21,9.21,0,0,1,619.73,1983.3Z"/><path class="cls-11" d="M536.92,1998.65c-1.27.67-2.54,1.3-3.77,2-6.55,3.65-13.43,6-21.06,5.4a36.19,36.19,0,0,1-6.63-1c-12-3.31-18.1-18.49-11.92-29.36,4.87-8.55,16.81-9.62,23.64-2.11,2.24,2.47,2.53,5.52.92,7.92-1.3,1.93-3,2.94-5.58,2a7,7,0,0,1,.12-1.41c1-3.14.77-4.28-1.06-5.63a6.67,6.67,0,0,0-7.07-.34,7.82,7.82,0,0,0-.91,12.26c4.08,3.54,11.54,3.8,16.51.58,4.48-2.9,6.24-8.23,4.58-13.87-2.08-7.07-8.47-11.79-16.3-12-11.48-.38-21.63,7.53-23.6,18.39-2.17,12,6.3,24.77,18.48,27.38,12.41,2.66,23.41-1,33.37-8.4a2.62,2.62,0,0,0,.55-.92C537.22,1999.32,537.12,1999.19,536.92,1998.65Z"/><path class="cls-11" d="M435,1984.64c1.44-.92,2.74-2.17,4.68-1.24a5.54,5.54,0,0,1,3.37,5.68,5.44,5.44,0,0,1-5.35,4.83,9.89,9.89,0,0,1-4.24-1.19,12,12,0,0,1-6.46-10c-.65-7.69,2.05-14,8.74-18.19A27.5,27.5,0,0,1,471,1969c2.36,2.52,4.39,5.33,7,8.53a7.54,7.54,0,0,0,0-2.12c-9.09-20.78-30.8-25.24-46.26-15.33-9.43,6.05-13.32,20.1-8.42,30.23a14.94,14.94,0,0,0,18.76,7.3,11.59,11.59,0,0,0,5.84-15.68,7.7,7.7,0,0,0-10.89-3.09C434.71,1980.22,434.2,1981.6,435,1984.64Z"/><path class="cls-11" d="M654.87,1976.5c.62-.69,1.27-1.37,1.87-2.08,1.68-2,3.21-4.15,5-6a27.82,27.82,0,0,1,35.62-3.2,18.65,18.65,0,0,1,7.48,19.07,12.08,12.08,0,0,1-8.6,9.48,5.46,5.46,0,0,1-6.76-3.24,5.21,5.21,0,0,1,2-6.57,3.7,3.7,0,0,1,5.31.58c1.32-2.13,1.1-3.51-.71-5.07a7.68,7.68,0,0,0-11.59,2.19,11.48,11.48,0,0,0,6,16.09,14.92,14.92,0,0,0,18.71-8.07c4.68-10.82.22-24.44-9.94-30.33-15.21-8.81-35.87-4.28-44.83,15.62a4.63,4.63,0,0,0-.17,1Z"/><path class="cls-11" d="M662.13,1989.29l.31.44,1.69-1.16c2.82-.4,5.64-1.13,8.45-1.12s5.11,1.49,6.37,4.88c-6.48-.67-11.06,2.55-15.62,5.81-1.83,1.3-3.67,2.59-5.55,3.81A68.46,68.46,0,0,1,641.4,2010c-10.32,3.35-20.76,4-31.31,1.15a45.59,45.59,0,0,1-4.3-1.62l.31-1c1.13.3,2.25.67,3.39.89,3.79.71,7.58,1.88,11.39,2,15.84.36,25.91-6.12,31.62-18.69,1.08-2.38,1.92-4.87,3-7.26,1.37-3.06,2.71-6.15,4.34-9.08,2.18-3.93,5.85-6.24,9.91-8.6a23.26,23.26,0,0,1-2.12,11.55c-1.33,2.81-2.88,5.52-4.33,8.28Zm-2.87,4.81c.15-.58.29-1.17.42-1.75l2.55-1.5-.58-.69-1.9,2.24c-.14.59-.27,1.19-.41,1.78l-.72.76h-.29l.21,0C658.79,1994.63,659,1994.37,659.26,1994.1Z"/><path class="cls-11" d="M468.69,1989l1.74,2.21.64-.43c-.59-.82-1.18-1.65-1.78-2.47-.16-.22-.33-.43-.49-.64-1.39-2.65-2.88-5.24-4.13-8a25.2,25.2,0,0,1-2.35-11.55c4.71,2.06,8,4.6,10.23,8.62,1.76,3.14,3,6.55,4.54,9.82,1.68,3.61,3.17,7.32,5.14,10.77,3.63,6.34,9.19,10.33,16.18,12.48,8.43,2.58,16.73,2.09,25-.58,1.43-.46,2.89-.83,4.34-1.24l.28.86c-2,.79-4,1.73-6.13,2.34-8.47,2.43-17,2.21-25.55.37-9.95-2.14-18.59-7-26.76-12.91-4.82-3.46-9.57-7.18-16.46-6.28,1.45-3.61,3.86-5,6.89-5a58.27,58.27,0,0,1,7.73,1Zm7.6,8.69.09.09.09.06-.09-.07ZM475,1995.6l0-.09-.8-.84c-.79-.7-1.59-1.39-2.39-2.07l0-.65-.45.15.5.44,2.37,2,.7.86Z"/><path class="cls-11" d="M566.22,2050.15a17,17,0,0,0-1.33,2,109.65,109.65,0,0,0-7,23.57,13.15,13.15,0,0,0,.51,6.6c2.16,5.52,4.78,10.86,7.36,16.57a8,8,0,0,0,1.35-1.45c1.49-3.14,2.79-6.38,4.4-9.45,2.93-5.56,3.78-11.22,1.76-17.29-1.72-5.2-3.18-10.48-4.85-15.69A46.29,46.29,0,0,0,566.22,2050.15Z"/><path class="cls-11" d="M557.38,2029.94l-.94,3.74a6.2,6.2,0,0,0,2-.17c1.46-.75,2.63-.46,4.18.08a10.19,10.19,0,0,0,6.12.27c2-.66,3.67-1.1,5.6-.19.27.13.7-.07,1.3-.15-.18-1-.34-1.9-.5-2.81l.05,0c-1.62-1.67-3.18-3.41-4.88-5s-1.74-3.5-1.81-5.5c-.25-7.73-.47-15.46-.71-23.19a13.57,13.57,0,0,0-2-7.51,26.47,26.47,0,0,0-1.15,4.1c-.29,3.47-.48,7-.62,10.44-.24,5.86-.43,11.71-.61,17.57a5.71,5.71,0,0,1-2.48,4.75,37.5,37.5,0,0,0-3.69,3.56Z"/><path class="cls-11" d="M562.79,2041.42c-1.78.62-2.81.9-3.78,1.33-5.39,2.39-10.67,5.06-16.17,7.17-6.85,2.63-10.94,7.41-12.69,14.64,1.73.56,3.37,0,5-.51a33.42,33.42,0,0,0,13.33-7.23c4.23-3.82,8.16-8,12.17-12.06A24.08,24.08,0,0,0,562.79,2041.42Z"/><path class="cls-11" d="M570.36,2043.08a22.24,22.24,0,0,0,2.29,3.3c3.06,3.08,6.17,6.13,9.4,9,5,4.48,10.59,7.83,17.26,9.14a12.81,12.81,0,0,0,1.85.23,3.1,3.1,0,0,0,.93-.29c-1.82-5.66-4.17-10.78-10.15-13.32-7-3-13.88-6.06-20.81-9.11Z"/><path class="cls-11" d="M562.26,2046.58c-5.87,5.33-11.62,10.61-15.4,17.6-2,3.67-1,7.5-.49,11.43,3-.1,5.21-1.63,7.3-3.37a17.78,17.78,0,0,0,5.21-7.64A62.57,62.57,0,0,0,562.26,2046.58Z"/><path class="cls-11" d="M585.48,2075.64c2.57-7,.15-12.65-4.32-17.66-3.63-4.05-7.37-8-11.41-11.79a63.6,63.6,0,0,0,3.22,17.38,26,26,0,0,0,3,5.93C578.33,2072.9,581.2,2074.62,585.48,2075.64Z"/><path class="cls-11" d="M558,2041.11c-6.86.85-13.46-.62-20.08-1.83-1.35-.25-2.72-.34-4.09-.46-5.41-.51-9.3,1.92-12.23,6.28C530.52,2050.52,549.33,2047.42,558,2041.11Z"/><path class="cls-11" d="M573.62,2041.06c8.15,6.78,27.57,8.93,37,4.19-2.92-4.64-7-7-12.48-6.4-2.84.3-5.68.78-8.49,1.29a46.85,46.85,0,0,1-14.51.83A10.21,10.21,0,0,0,573.62,2041.06Z"/><path class="cls-11" d="M395.31,1981.84c-4.36-5.71-8.72-11.35-15.4-14.33a17.54,17.54,0,0,0-5.7-1.53c-3.17-.25-6.36-.07-10.22-.07a33,33,0,0,0,2.24,3.24,22.85,22.85,0,0,0,11.4,6.71c3.55,1,7.17,1.7,10.66,2.83A66.64,66.64,0,0,1,395.31,1981.84Z"/><path class="cls-11" d="M768.25,1965.86c-3.71,0-6.65-.08-9.59,0a17.64,17.64,0,0,0-11.25,4.52,126.12,126.12,0,0,0-11.56,11.77c6-3.82,12.91-4.43,19.36-6.47a23.3,23.3,0,0,0,10.48-6.27A42.55,42.55,0,0,0,768.25,1965.86Z"/><path class="cls-11" d="M574.43,2038.81c10.1,3.51,26.44-4.87,29.7-14.93-4.12,1.77-8.92-1.46-12.09,3.27l-5.08-3.1c1.91,4.71,1.58,8.27-1.49,11.33C582.65,2038.18,579,2038.49,574.43,2038.81Z"/><path class="cls-11" d="M549.09,2036c-.5,0-1.15.28-1.47,0a8.25,8.25,0,0,1-3.36-9.15c.13-.58.28-1.15.62-2.51l-4.67,2.61c-1.81-2.45-4.36-2.8-7.26-2.49a26.26,26.26,0,0,1-4.79-.33c2.79,9.46,19,18,28.91,14.8-1.89-.29-3.2-.39-4.46-.71-1.05-.27-2.58.15-2.86-1.58l.07,0c-.81.26-1.31.22-.8-.82Z"/><path class="cls-11" d="M557.32,2030a5,5,0,0,1-.48-1.78c.43-3.38-3.43-5.36-6.53-3.53a7,7,0,0,0-2.56,8.8c.38.87.89,1.7,1.34,2.54l-.07-.08c.26.28.53.55.8.82l-.07,0H553c-3-2-5.18-4.32-3.91-8a3.31,3.31,0,0,1,4.23-2.33c0,.31.13.72,0,.9-.82,1-1.32,2.09-.12,2.87.61.4,1.76,0,2.67-.08l1.51-.14Z"/><path class="cls-11" d="M575.18,2030.71l1.49-.32c.89-.18,2-.09,2.61-.6,1-.86.1-1.77-.5-2.58-.11-.15,0-.45,0-.68,2.84-.08,4,.51,4.48,2.66.9,3.72-1.33,5.76-4.58,7.42,3.9-.11,5.92-1.88,6.31-5.18s-1.58-6.62-4.47-7.33a4,4,0,0,0-5.11,4.51c.07.71,1.22,1.53-.16,2.14Z"/><path class="cls-11" d="M571.36,2038.2l3,1.1.29-.84-3-1.06Z"/><path class="cls-11" d="M443.13,2000.48l1.09-1.4-1.93.36Z"/><path class="cls-11" d="M685.87,1997.87l-.49.27c.09.08.19.25.25.23a2.27,2.27,0,0,0,.5-.23Z"/><path class="cls-11" d="M571.13,2042.07l-1-.17.18,1.18Z"/><path class="cls-11" d="M559.21,2040.7l-.23.11.24.29.22-.2Z"/><line class="cls-54" x1="249" y1="1167" x2="884" y2="1167"/><text class="cls-55" transform="translate(483.61 1144)">Email</text><line class="cls-54" x1="248.5" y1="1361.96" x2="883.5" y2="1361.96"/><text class="cls-55" transform="translate(427.08 1344.97)">Password</text><path class="cls-56" d="M867.86,1321.34a9.43,9.43,0,0,1-5,13.62,9.28,9.28,0,0,1-7.64-.47l-.32-.13-.34-.27c-.41-.44-.81-.89-1.24-1.31-.08-.07-.28,0-.42,0l-.93-1a9.26,9.26,0,0,1-1.85-6.29,27.48,27.48,0,0,1,.67-3.22l.63-1.13,0,0,0,0,2.46-2.72h.28l-.05-.83-.43.06.21-.49-.17-.07-.32.74c-.48.05-.91.16-.84.8l-1.41.49c-1.87.76-3.76,1.45-5.59,2.3-1.43.66-2.76,1.5-4.14,2.27l-.81-1.17a27.7,27.7,0,0,1,6.33-4.58,25.9,25.9,0,0,1,14.25-3.39c.25,0,.5.07.75.11l1.41,1.49.11-.11-1.28-1.36a23.56,23.56,0,0,1,6.77,1.71,29.82,29.82,0,0,1,12.74,9.52,4.26,4.26,0,0,1,.34.49l-.11.1c-.51-.34-1-.69-1.51-1a51.12,51.12,0,0,0-10.28-5.64,5.15,5.15,0,0,0-.56-.16c0-.25,0-.58-.12-.73a4,4,0,0,0-1.33-1.17,1.44,1.44,0,0,0-1.87.47c-.06.1-.23.13-.34.2h-.65l.34.3c-.06.45-.15.89-.17,1.34-.05.89.75,1.2,1.26,1.68s.64-.21,1-.35A.76.76,0,0,1,867.86,1321.34Zm-12.93-1.16a2.43,2.43,0,1,0,2.41,2.41A2.39,2.39,0,0,0,854.93,1320.18Zm2.18,9.24.11.1-2,1.93-.07-.07Zm3-2.83-.08-.09-.54.13-.49.88.05,0Z"/><path class="cls-56" d="M857.17,1339.76a23.52,23.52,0,0,1-7-1.79,29.88,29.88,0,0,1-12.4-9.22c-.15-.18-.29-.37-.42-.56a1.15,1.15,0,0,1-.06-.24,6.55,6.55,0,0,1,.63.35,56.34,56.34,0,0,0,9.2,5.44c.88.4,1.8.73,2.7,1.09l.6.26c0,.73.72,1,1.12,1.48s.63.3,1,0,.51-.4.77-.6c1.89.26,3.77.61,5.66.76a18.14,18.14,0,0,0,5.68-.5l.81.1c.12.13.29.38.36.36.35-.12.69-.3.47-.79l1.54-.48a33.57,33.57,0,0,0,6.67-2.78c1.17-.61,2.31-1.29,3.46-1.93l1,1a26.7,26.7,0,0,1-5.6,4.27,28.49,28.49,0,0,1-10.52,3.79,2.77,2.77,0,0,1-.41,0l1.51-1.61-.11-.1-1.63,1.73-3.87.09c-1.34-.13-1.82-1.44-2.85-2Z"/><path class="cls-56" d="M840.65,1322.52l.81,1.17-4.22,2.85A17.36,17.36,0,0,1,840.65,1322.52Z"/><path class="cls-56" d="M878.86,1331.67l-1-1,4-2.74.12.14A22,22,0,0,1,878.86,1331.67Z"/><path class="cls-56" d="M865.64,1318.73l.33.27c-.13.15-.38.32-.36.45.09.58,0,1.25.69,1.61.29.16.55.35.83.52l.26-1,.2.17.27.55a.76.76,0,0,0-.16.06c-.33.14-.56.74-1,.35s-1.31-.79-1.26-1.68C865.49,1319.62,865.58,1319.18,865.64,1318.73Z"/><path class="cls-56" d="M866.32,1318.52l-.37-.09c.11-.07.28-.1.34-.2a1.44,1.44,0,0,1,1.87-.47,4,4,0,0,1,1.33,1.17c.14.15.09.48.12.73l-.58-.08,0-.1c.09-.16.29-.39.25-.47C868.67,1318.05,867.17,1317.21,866.32,1318.52Z"/><path class="cls-56" d="M852.37,1335.76l.35,0,.5.19c-.26.2-.53.38-.77.6s-.66.35-1,0-1.07-.75-1.12-1.48l.36.07.14.12c0,.11-.13.27-.09.31a8.33,8.33,0,0,0,1,.93c.08,0,.39-.11.5-.25S852.36,1335.93,852.37,1335.76Z"/><path class="cls-56" d="M857.17,1339.76l-1.79-1.92c1,.57,1.51,1.88,2.85,2Z"/><path class="cls-56" d="M862.1,1339.76l1.63-1.73.11.1-1.51,1.61Z"/><path class="cls-56" d="M862.22,1314.68l1.28,1.36-.11.11-1.41-1.49Z"/><path class="cls-56" d="M853.78,1318.31l-1.18.32c-.07-.64.36-.75.84-.8Z"/><path class="cls-56" d="M854.61,1334.09l-.47-.24-.85-.66-.34-.45c.14,0,.34,0,.42,0C853.8,1333.2,854.2,1333.65,854.61,1334.09Z"/><path class="cls-56" d="M853.78,1318.31l-.34-.48c.11-.25.22-.49.32-.74l.17.07-.21.49.43-.06.05.83h-.28Z"/><path class="cls-56" d="M857.11,1329.42l-1.93,2,.07.07,2-1.93Z"/><path class="cls-56" d="M860.15,1326.59l-1.06,1-.05,0,.49-.88.54-.13Z"/><path class="cls-56" d="M865.37,1336.33l.83-.43c.22.49-.12.67-.47.79C865.66,1336.71,865.49,1336.46,865.37,1336.33Z"/><path class="cls-56" d="M867.12,1320.18l.27.44-.26,1c-.28-.17-.54-.36-.83-.52-.64-.36-.6-1-.69-1.61,0-.13.23-.3.36-.45.23.27.45.54.7.8A5.63,5.63,0,0,0,867.12,1320.18Z"/><path class="cls-56" d="M866.32,1318.52c.85-1.31,2.35-.47,2.93.49,0,.08-.16.31-.25.47Z"/><path class="cls-56" d="M850.87,1335.28l1.38.37.12.11c0,.17,0,.4,0,.51s-.42.3-.5.25a8.33,8.33,0,0,1-1-.93S850.83,1335.39,850.87,1335.28Z"/><rect class="cls-57" x="486.5" y="1575.5" width="154" height="380" rx="45.66" transform="translate(2329 1202) rotate(90)"/><rect class="cls-57" x="383.5" y="1698.5" width="360" height="134" rx="35.66"/><text class="cls-58" transform="translate(410.5 1788.47)">Comfirm</text><text class="cls-59" transform="translate(429.13 1471.17)">Forgot Password?</text><text class="cls-59" transform="translate(371.13 831.17)">Dont have an account?</text><text class="cls-60" transform="translate(508.85 905.17)">Sign up</text></g><g id="gun"><path class="cls-4" d="M-53.15-27.59H500a55.3,55.3,0,0,1,55.3,55.3V79.27a0,0,0,0,1,0,0H-53.15a0,0,0,0,1,0,0V-27.59a0,0,0,0,1,0,0Z" transform="translate(28.93 145.65) rotate(-34.22)"/><g class="cls-61"><path d="M7.89,156.92H92.34a41.36,41.36,0,0,1,41.36,41.36v0a0,0,0,0,1,0,0H7.89a0,0,0,0,1,0,0V156.92a0,0,0,0,1,0,0Z" transform="translate(-87.62 70.56) rotate(-34.22)"/><path d="M-17.59,156.43l19.38,28.5s95-62.54,115.67-53.65L222.92,59.56s8-15.85,20-13.57L370.17-42.66,345.94-78.29l-.28,21L23.57,161.79Z"/></g><path d="M279.93,72.9,146,164l-7.76-11.41,115-76.11Z"/><path d="M295.33.39h99.1a0,0,0,0,1,0,0V26.25a0,0,0,0,1,0,0h-99.1a12.93,12.93,0,0,1-12.93-12.93v0A12.93,12.93,0,0,1,295.33.39Z" transform="matrix(0.83, -0.56, 0.56, 0.83, 51.09, 192.62)"/><path class="cls-4" d="M-22,146.91s-9.3-22.86,24.22-16.48"/><path class="cls-4" d="M-24.72,161.28-26,174.67l19.39,28.51,3.81-.52L8.81,219.77,16,221.13Z"/><path class="cls-4" d="M400.1-10.91,377.81-43.69l131.12-89.17,64.88,89.27L742.67,72.93s13.46,7.53.18,18.64S617.2,204.11,617.2,204.11s-6.72-3.76-3-10.48S471.2,78.3,471.2,78.3s-24.46-8.38-72.92,24.58-76.1,41.33-100.9-4.33l-42.19-13Z"/><g class="cls-62"><polygon points="262.43 93.14 251.31 79.86 384.37 -6.46 412.19 3.8 647.59 181.37 612.99 213.24 460.25 83.66 390.25 112.51 339.4 145.01 262.43 93.14"/><rect class="cls-63" x="298.07" y="34.22" width="117.2" height="79.28" rx="37.99" transform="translate(20.2 213.36) rotate(-34.22)"/><path class="cls-4" d="M403-12.91l-12,8.65S411,9.67,416,23.17s-1.38,34.74,14.93,34.21,45.55-3.52,58.67,6.57S639.21,179.77,639.21,179.77l4.27-2.91L403-12.91"/></g><path d="M377.81-43.69c2.39.46,13.91,5.13,13.91,5.13l77-52.34,244.86,167s-4.1,21.55,3.65,33l-75.87,66.19L400.56-13.31Z"/><circle class="cls-64" cx="524.61" cy="12.8" r="24.13"/><circle class="cls-65" cx="660.07" cy="109.31" r="13.79"/><circle class="cls-66" cx="438.13" cy="43.47" r="10.34"/><circle class="cls-67" cx="722.09" cy="96.31" r="5.17"/><circle class="cls-68" cx="343.61" cy="83.78" r="32.75"/><path class="cls-4" d="M519.32-135.8S538-122,568.56-136.65s30.31,12,26.53,14.59-42.26,32.82-18.23,65.43L740.5,72.78a13.86,13.86,0,0,1,2.57,4.11c1.6,3.88,1.61,9.11,0,10.47-2,1.71-9-.75-31.49-20.36L462.86-99.45Z"/></g><polygon id="Shadow2-2" data-name="Shadow2" class="cls-69" points="732.08 -189.69 -72.99 529 -242.07 531.34 -223.26 -57.12 732.08 -189.69"/><path id="Shadow1-2" data-name="Shadow1" class="cls-69" d="M911.43-205.62l273,1083.93S1513.52,790,1524.35,776.24,1060.58-256.39,1060.58-256.39Z"/><path class="cls-11" d="M655.2,650.1a1.5,1.5,0,0,0,0-3,1.5,1.5,0,0,0,0,3Z"/><rect x="227.5" y="521.5" width="676" height="1341"/></svg>